<svg width="257" height="55" viewBox="0 0 257 55" fill="none" xmlns="http://www.w3.org/2000/svg">
<mask id="path-1-inside-1_813_13" fill="white">
<path fill-rule="evenodd" clip-rule="evenodd" d="M0 30.6063V24.3937L4.66405 23.8112C4.84945 22.1163 5.17024 20.462 5.61539 18.8594L1.57818 16.5452L3.97962 10.8146L8.41149 12.0504C9.20341 10.6283 10.103 9.27421 11.0993 7.99923L8.29194 4.39297L12.6888 0L21.0934 6.54389C14.6804 11.0809 10.4941 18.5525 10.4941 27.001C10.4941 35.7542 14.9878 43.4588 21.796 47.9375L16.5865 51.9774L16.5824 51.9743L12.6887 55L8.2919 50.607L11.2941 46.7505C10.2557 45.4487 9.31899 44.0623 8.49597 42.6033L3.80992 43.8584L1.46742 38.1035L5.64888 35.7632C5.23118 34.2825 4.91976 32.7572 4.72336 31.1962L0 30.6063Z"/>
<path fill-rule="evenodd" clip-rule="evenodd" d="M71.5 30.6063V24.3937L66.8359 23.8112C66.6505 22.1163 66.3297 20.462 65.8846 18.8594L69.9218 16.5452L67.5204 10.8146L63.0885 12.0504C62.2966 10.6283 61.397 9.27421 60.4007 7.99923L63.2081 4.39297L58.8112 0L50.4066 6.54389C56.8196 11.0809 61.0058 18.5525 61.0058 27.001C61.0058 35.7542 56.5122 43.4588 49.704 47.9375L54.9135 51.9774L54.9176 51.9743L58.8112 55L63.2081 50.607L60.2059 46.7505C61.2443 45.4487 62.181 44.0623 63.004 42.6033L67.6901 43.8584L70.0326 38.1035L65.8511 35.7632C66.2688 34.2825 66.5802 32.7572 66.7766 31.1962L71.5 30.6063Z"/>
<path fill-rule="evenodd" clip-rule="evenodd" d="M48.4326 1.51601H35.5193V1.02915H48.9199V7.35839H45.9961V5.66182C45.9961 4.98718 45.4469 4.44124 44.7717 4.44467L38.0311 4.47965L38.1904 30.0052C38.1945 30.6744 38.7387 31.2148 39.4086 31.2148H41.0219V33.6491H35.5193V33.1622H40.5346V31.7016H39.4086C38.4708 31.7016 37.7089 30.9452 37.7031 30.0082L37.5408 3.99536L44.7692 3.95781C45.7145 3.953 46.4834 4.71732 46.4834 5.66182V6.87152H48.4326V1.51601Z"/>
<path fill-rule="evenodd" clip-rule="evenodd" d="M22.606 1.51601H35.5193V1.02915H22.1187V7.35839H25.0425V5.66182C25.0425 4.98718 25.5917 4.44124 26.2669 4.44467L33.0075 4.47965L32.8482 30.0052C32.8441 30.6744 32.2999 31.2148 31.63 31.2148H30.0167V33.6491H35.5193V33.1622H30.504V31.7016H31.63C32.5678 31.7016 33.3297 30.9452 33.3355 30.0082L33.4978 3.99536L26.2694 3.95781C25.3241 3.953 24.5552 4.71732 24.5552 5.66182V6.87152H22.606V1.51601Z"/>
<path d="M48.4326 1.51601H35.5193H22.606V6.87152H24.5552V5.66182C24.5552 4.71732 25.3241 3.953 26.2694 3.95781L33.4978 3.99536L33.3355 30.0082C33.3297 30.9452 32.5678 31.7016 31.63 31.7016H30.504V33.1622H35.5193H40.5346V31.7016H39.4086C38.4708 31.7016 37.7089 30.9452 37.7031 30.0082L37.5408 3.99536L44.7692 3.95781C45.7145 3.953 46.4834 4.71732 46.4834 5.66182V6.87152H48.4326V1.51601Z"/>
<path d="M40.8943 12.3497H51.5998V13.3235H49.5873C48.2736 13.3235 47.2058 14.3833 47.1954 15.6974L47.0568 33.2578C47.0568 35.4165 46.5284 37.3439 45.4717 39.0399C44.4256 40.7257 42.9473 42.0569 41.0367 43.0334C39.126 43.9997 36.8845 44.4828 34.3121 44.4828C31.7397 44.4828 29.4982 43.9997 27.5876 43.0334C25.6769 42.0569 24.1933 40.7257 23.1365 39.0399C22.0905 37.3439 21.5675 35.4165 21.5675 33.2578V15.7467C21.5675 14.4252 20.4966 13.3539 19.1755 13.3539H17.4892V12.3497H30.7436V13.3539H28.0521C26.7431 13.3539 25.6772 14.4065 25.6604 15.7159L25.4358 33.186C25.4358 34.7279 25.3967 37.3242 26.1012 38.5269C26.8057 39.7193 27.4787 40.2969 29.6049 41.3486C30.8898 42.0009 32.4869 42.3662 34.3121 42.3662C36.1374 42.3662 37.7064 42.027 39.0193 41.3486C40.3322 40.6599 42.1688 39.6674 43.0039 38.5269C43.7059 37.5682 44.9726 34.4412 44.9726 32.935L45.2285 15.7689C45.2486 14.4271 44.1617 13.3312 42.8202 13.3405L40.8943 13.3539V12.3497Z"/>
</mask>
<path fill-rule="evenodd" clip-rule="evenodd" d="M0 30.6063V24.3937L4.66405 23.8112C4.84945 22.1163 5.17024 20.462 5.61539 18.8594L1.57818 16.5452L3.97962 10.8146L8.41149 12.0504C9.20341 10.6283 10.103 9.27421 11.0993 7.99923L8.29194 4.39297L12.6888 0L21.0934 6.54389C14.6804 11.0809 10.4941 18.5525 10.4941 27.001C10.4941 35.7542 14.9878 43.4588 21.796 47.9375L16.5865 51.9774L16.5824 51.9743L12.6887 55L8.2919 50.607L11.2941 46.7505C10.2557 45.4487 9.31899 44.0623 8.49597 42.6033L3.80992 43.8584L1.46742 38.1035L5.64888 35.7632C5.23118 34.2825 4.91976 32.7572 4.72336 31.1962L0 30.6063Z" fill="#D4D5D5"/>
<path fill-rule="evenodd" clip-rule="evenodd" d="M71.5 30.6063V24.3937L66.8359 23.8112C66.6505 22.1163 66.3297 20.462 65.8846 18.8594L69.9218 16.5452L67.5204 10.8146L63.0885 12.0504C62.2966 10.6283 61.397 9.27421 60.4007 7.99923L63.2081 4.39297L58.8112 0L50.4066 6.54389C56.8196 11.0809 61.0058 18.5525 61.0058 27.001C61.0058 35.7542 56.5122 43.4588 49.704 47.9375L54.9135 51.9774L54.9176 51.9743L58.8112 55L63.2081 50.607L60.2059 46.7505C61.2443 45.4487 62.181 44.0623 63.004 42.6033L67.6901 43.8584L70.0326 38.1035L65.8511 35.7632C66.2688 34.2825 66.5802 32.7572 66.7766 31.1962L71.5 30.6063Z" fill="#D4D5D5"/>
<path fill-rule="evenodd" clip-rule="evenodd" d="M48.4326 1.51601H35.5193V1.02915H48.9199V7.35839H45.9961V5.66182C45.9961 4.98718 45.4469 4.44124 44.7717 4.44467L38.0311 4.47965L38.1904 30.0052C38.1945 30.6744 38.7387 31.2148 39.4086 31.2148H41.0219V33.6491H35.5193V33.1622H40.5346V31.7016H39.4086C38.4708 31.7016 37.7089 30.9452 37.7031 30.0082L37.5408 3.99536L44.7692 3.95781C45.7145 3.953 46.4834 4.71732 46.4834 5.66182V6.87152H48.4326V1.51601Z" fill="#59B0F6"/>
<path fill-rule="evenodd" clip-rule="evenodd" d="M22.606 1.51601H35.5193V1.02915H22.1187V7.35839H25.0425V5.66182C25.0425 4.98718 25.5917 4.44124 26.2669 4.44467L33.0075 4.47965L32.8482 30.0052C32.8441 30.6744 32.2999 31.2148 31.63 31.2148H30.0167V33.6491H35.5193V33.1622H30.504V31.7016H31.63C32.5678 31.7016 33.3297 30.9452 33.3355 30.0082L33.4978 3.99536L26.2694 3.95781C25.3241 3.953 24.5552 4.71732 24.5552 5.66182V6.87152H22.606V1.51601Z" fill="#59B0F6"/>
<path d="M48.4326 1.51601H35.5193H22.606V6.87152H24.5552V5.66182C24.5552 4.71732 25.3241 3.953 26.2694 3.95781L33.4978 3.99536L33.3355 30.0082C33.3297 30.9452 32.5678 31.7016 31.63 31.7016H30.504V33.1622H35.5193H40.5346V31.7016H39.4086C38.4708 31.7016 37.7089 30.9452 37.7031 30.0082L37.5408 3.99536L44.7692 3.95781C45.7145 3.953 46.4834 4.71732 46.4834 5.66182V6.87152H48.4326V1.51601Z" fill="#59B0F6"/>
<path d="M40.8943 12.3497H51.5998V13.3235H49.5873C48.2736 13.3235 47.2058 14.3833 47.1954 15.6974L47.0568 33.2578C47.0568 35.4165 46.5284 37.3439 45.4717 39.0399C44.4256 40.7257 42.9473 42.0569 41.0367 43.0334C39.126 43.9997 36.8845 44.4828 34.3121 44.4828C31.7397 44.4828 29.4982 43.9997 27.5876 43.0334C25.6769 42.0569 24.1933 40.7257 23.1365 39.0399C22.0905 37.3439 21.5675 35.4165 21.5675 33.2578V15.7467C21.5675 14.4252 20.4966 13.3539 19.1755 13.3539H17.4892V12.3497H30.7436V13.3539H28.0521C26.7431 13.3539 25.6772 14.4065 25.6604 15.7159L25.4358 33.186C25.4358 34.7279 25.3967 37.3242 26.1012 38.5269C26.8057 39.7193 27.4787 40.2969 29.6049 41.3486C30.8898 42.0009 32.4869 42.3662 34.3121 42.3662C36.1374 42.3662 37.7064 42.027 39.0193 41.3486C40.3322 40.6599 42.1688 39.6674 43.0039 38.5269C43.7059 37.5682 44.9726 34.4412 44.9726 32.935L45.2285 15.7689C45.2486 14.4271 44.1617 13.3312 42.8202 13.3405L40.8943 13.3539V12.3497Z" fill="#59B0F6"/>
<path d="M48.4326 1.51601H48.4672V1.48139H48.4326V1.51601ZM40.5346 33.1622V33.1968H40.5692V33.1622H40.5346ZM40.5346 31.7016H40.5692V31.667H40.5346V31.7016ZM37.7031 30.0082L37.7377 30.008L37.7377 30.008L37.7031 30.0082ZM37.5408 3.99536L37.5406 3.96075L37.5059 3.96093L37.5061 3.99558L37.5408 3.99536ZM44.7692 3.95781L44.769 3.9232L44.769 3.9232L44.7692 3.95781ZM46.4834 6.87152H46.4488V6.90614H46.4834V6.87152ZM48.4326 6.87152V6.90614H48.4672V6.87152H48.4326ZM22.606 1.51601V1.48139H22.5714V1.51601H22.606ZM30.504 33.1622H30.4694V33.1968H30.504V33.1622ZM30.504 31.7016V31.667H30.4694V31.7016H30.504ZM33.3355 30.0082L33.3701 30.0084L33.3701 30.0084L33.3355 30.0082ZM33.4978 3.99536L33.5325 3.99558L33.5327 3.96093L33.498 3.96075L33.4978 3.99536ZM26.2694 3.95781L26.2696 3.9232L26.2696 3.9232L26.2694 3.95781ZM24.5552 6.87152V6.90614H24.5898V6.87152H24.5552ZM22.606 6.87152H22.5714V6.90614H22.606V6.87152ZM12.71 55.0274L16.6077 52.0048L16.5653 51.95L12.6675 54.9726L12.71 55.0274ZM58.8325 54.9726L54.9347 51.95L54.8923 52.0048L58.79 55.0274L58.8325 54.9726ZM35.5193 1.55063H48.4326V1.48139H35.5193V1.55063ZM35.4847 1.02915V1.51601H35.5539V1.02915H35.4847ZM35.4847 33.1622V33.6491H35.5539V33.1622H35.4847ZM40.5346 33.1276H35.5193V33.1968H40.5346V33.1276ZM40.5 31.7016V33.1622H40.5692V31.7016H40.5ZM39.4086 31.7362H40.5346V31.667H39.4086V31.7362ZM37.6685 30.0084C37.6744 30.9645 38.4518 31.7362 39.4086 31.7362V31.667C38.4898 31.667 37.7434 30.9259 37.7377 30.008L37.6685 30.0084ZM46.5181 5.66182C46.5181 4.6981 45.7335 3.91829 44.769 3.9232L44.7694 3.99243C45.6956 3.98772 46.4488 4.73653 46.4488 5.66182H46.5181ZM46.5181 6.87152V5.66182H46.4488V6.87152H46.5181ZM48.4326 6.83691H46.4834V6.90614H48.4326V6.83691ZM48.398 1.51601V6.87152H48.4672V1.51601H48.398ZM37.5061 3.99558L37.6685 30.0084L37.7377 30.008L37.5754 3.99515L37.5061 3.99558ZM44.769 3.9232L37.5406 3.96075L37.5409 4.02998L44.7694 3.99243L44.769 3.9232ZM35.5193 1.48139H22.606V1.55063H35.5193V1.48139ZM30.504 33.1968H35.5193V33.1276H30.504V33.1968ZM30.4694 31.7016V33.1622H30.5386V31.7016H30.4694ZM31.63 31.667H30.504V31.7362H31.63V31.667ZM33.3009 30.008C33.2952 30.9259 32.5488 31.667 31.63 31.667V31.7362C32.5868 31.7362 33.3642 30.9645 33.3701 30.0084L33.3009 30.008ZM24.5898 5.66182C24.5898 4.73653 25.343 3.98772 26.2692 3.99243L26.2696 3.9232C25.3051 3.91829 24.5205 4.6981 24.5205 5.66182H24.5898ZM24.5898 6.87152V5.66182H24.5205V6.87152H24.5898ZM22.606 6.90614H24.5552V6.83691H22.606V6.90614ZM22.5714 1.51601V6.87152H22.6406V1.51601H22.5714ZM33.4632 3.99515L33.3009 30.008L33.3701 30.0084L33.5325 3.99558L33.4632 3.99515ZM26.2692 3.99243L33.4977 4.02998L33.498 3.96075L26.2696 3.9232L26.2692 3.99243ZM0 30.6063H-0.0692308V30.6674L-0.00857953 30.675L0 30.6063ZM0 24.3937L-0.00857958 24.325L-0.0692308 24.3326L-0.0692308 24.3937H0ZM1.57818 16.5452L1.51433 16.5185L1.49069 16.5749L1.54375 16.6053L1.57818 16.5452ZM3.97962 10.8146L3.99821 10.748L3.93937 10.7315L3.91577 10.7879L3.97962 10.8146ZM3.80992 43.8584L3.7458 43.8845L3.76883 43.941L3.82783 43.9252L3.80992 43.8584ZM1.46742 38.1035L1.43361 38.0431L1.38024 38.0729L1.4033 38.1296L1.46742 38.1035ZM12.6887 55L12.6398 55.049L12.683 55.0921L12.7312 55.0547L12.6887 55ZM8.2919 50.607L8.23727 50.5645L8.19969 50.6128L8.24297 50.656L8.2919 50.607ZM8.29194 4.39297L8.243 4.344L8.19973 4.38723L8.23731 4.4355L8.29194 4.39297ZM12.6888 0L12.7313 -0.0546256L12.6831 -0.0921746L12.6399 -0.0489752L12.6888 0ZM11.0993 7.99923L11.1538 8.04186L11.1871 7.99931L11.1539 7.9567L11.0993 7.99923ZM4.72336 31.1962L4.79205 31.1876L4.78533 31.1342L4.73194 31.1275L4.72336 31.1962ZM5.64888 35.7632L5.68269 35.8237L5.73033 35.797L5.71551 35.7445L5.64888 35.7632ZM8.49597 42.6033L8.55626 42.5693L8.52989 42.5226L8.47805 42.5365L8.49597 42.6033ZM11.2941 46.7505L11.3487 46.793L11.3822 46.75L11.3482 46.7073L11.2941 46.7505ZM16.5824 51.9743L16.6249 51.9196L16.5824 51.8866L16.5399 51.9196L16.5824 51.9743ZM8.41149 12.0504L8.39289 12.1171L8.44543 12.1317L8.47197 12.0841L8.41149 12.0504ZM5.61539 18.8594L5.6821 18.8779L5.69649 18.8261L5.64982 18.7993L5.61539 18.8594ZM4.66405 23.8112L4.67263 23.8799L4.72692 23.8731L4.73287 23.8187L4.66405 23.8112ZM21.0934 6.54389L21.1334 6.60041L21.2095 6.54655L21.136 6.48927L21.0934 6.54389ZM21.796 47.9375L21.8384 47.9922L21.9149 47.9329L21.834 47.8797L21.796 47.9375ZM16.5865 51.9774L16.544 52.032L16.5864 52.0651L16.6289 52.0321L16.5865 51.9774ZM71.5 30.6063L71.5086 30.675L71.5692 30.6674V30.6063H71.5ZM71.5 24.3937H71.5692V24.3326L71.5086 24.325L71.5 24.3937ZM69.9218 16.5452L69.9562 16.6053L70.0093 16.5749L69.9857 16.5185L69.9218 16.5452ZM67.5204 10.8146L67.5842 10.7879L67.5606 10.7315L67.5018 10.748L67.5204 10.8146ZM67.6901 43.8584L67.6722 43.9252L67.7312 43.941L67.7542 43.8845L67.6901 43.8584ZM70.0326 38.1035L70.0967 38.1296L70.1197 38.0729L70.0664 38.0431L70.0326 38.1035ZM58.8112 55L58.7688 55.0547L58.817 55.0921L58.8602 55.049L58.8112 55ZM63.2081 50.607L63.257 50.656L63.3003 50.6128L63.2627 50.5645L63.2081 50.607ZM63.2081 4.39297L63.2627 4.4355L63.3003 4.38723L63.257 4.344L63.2081 4.39297ZM58.8112 0L58.8601 -0.0489752L58.8169 -0.0921746L58.7687 -0.0546256L58.8112 0ZM60.4007 7.99923L60.3461 7.9567L60.3129 7.99931L60.3462 8.04186L60.4007 7.99923ZM66.7766 31.1962L66.7681 31.1275L66.7147 31.1342L66.7079 31.1876L66.7766 31.1962ZM65.8511 35.7632L65.7845 35.7445L65.7697 35.797L65.8173 35.8237L65.8511 35.7632ZM63.004 42.6033L63.0219 42.5365L62.9701 42.5226L62.9437 42.5693L63.004 42.6033ZM60.2059 46.7505L60.1518 46.7073L60.1178 46.75L60.1513 46.793L60.2059 46.7505ZM54.9176 51.9743L54.96 51.9196L54.9175 51.8865L54.875 51.9197L54.9176 51.9743ZM63.0885 12.0504L63.028 12.0841L63.0546 12.1317L63.1071 12.1171L63.0885 12.0504ZM65.8846 18.8594L65.8502 18.7993L65.8035 18.8261L65.8179 18.8779L65.8846 18.8594ZM66.8359 23.8112L66.7671 23.8187L66.7731 23.8731L66.8274 23.8799L66.8359 23.8112ZM50.4066 6.54389L50.364 6.48927L50.2905 6.54655L50.3666 6.60041L50.4066 6.54389ZM49.704 47.9375L49.666 47.8797L49.5851 47.9329L49.6616 47.9922L49.704 47.9375ZM54.9135 51.9774L54.8711 52.0321L54.9136 52.0651L54.9561 52.032L54.9135 51.9774ZM48.9199 1.02915H48.9891V0.959915H48.9199V1.02915ZM48.9199 7.35839V7.42762H48.9891V7.35839H48.9199ZM45.9961 7.35839H45.9269V7.42762H45.9961V7.35839ZM44.7717 4.44467L44.7713 4.37544L44.7713 4.37544L44.7717 4.44467ZM38.0311 4.47965L38.0307 4.41042L37.9614 4.41078L37.9619 4.48009L38.0311 4.47965ZM38.1904 30.0052L38.2596 30.0048L38.2596 30.0048L38.1904 30.0052ZM41.0219 31.2148H41.0911V31.1455H41.0219V31.2148ZM41.0219 33.6491V33.7183H41.0911V33.6491H41.0219ZM22.1187 1.02915V0.959915H22.0495V1.02915H22.1187ZM22.1187 7.35839H22.0495V7.42762H22.1187V7.35839ZM25.0425 7.35839V7.42762H25.1117V7.35839H25.0425ZM26.2669 4.44467L26.2673 4.37544L26.2673 4.37544L26.2669 4.44467ZM33.0075 4.47965L33.0767 4.48009L33.0772 4.41078L33.0079 4.41042L33.0075 4.47965ZM32.8482 30.0052L32.779 30.0048L32.779 30.0048L32.8482 30.0052ZM30.0167 31.2148V31.1455H29.9475V31.2148H30.0167ZM30.0167 33.6491H29.9475V33.7183H30.0167V33.6491ZM40.8943 12.3497V12.2805H40.8251V12.3497H40.8943ZM51.5998 12.3497H51.6691V12.2805H51.5998V12.3497ZM47.0568 33.2578L46.9875 33.2573V33.2578H47.0568ZM45.4717 39.0399L45.4129 39.0033L45.4128 39.0034L45.4717 39.0399ZM41.0367 43.0334L41.0679 43.0952L41.0682 43.0951L41.0367 43.0334ZM27.5876 43.0334L27.556 43.0951L27.5563 43.0952L27.5876 43.0334ZM23.1365 39.0399L23.0776 39.0763L23.0779 39.0767L23.1365 39.0399ZM17.4892 12.3497V12.2805H17.42V12.3497H17.4892ZM30.7436 12.3497H30.8128V12.2805H30.7436V12.3497ZM25.4358 33.186L25.3666 33.1851V33.186H25.4358ZM26.1012 38.5269L26.0415 38.5619L26.0416 38.5621L26.1012 38.5269ZM29.6049 41.3486L29.6363 41.2868L29.6356 41.2865L29.6049 41.3486ZM39.0193 41.3486L39.0511 41.4101L39.0515 41.4099L39.0193 41.3486ZM43.0039 38.5269L43.0598 38.5678L43.0598 38.5678L43.0039 38.5269ZM44.9726 32.935L44.9034 32.934V32.935H44.9726ZM30.7436 13.3539V13.4231H30.8128V13.3539H30.7436ZM17.4892 13.3539H17.42V13.4231H17.4892V13.3539ZM51.5998 13.3235V13.3927H51.6691V13.3235H51.5998ZM40.8943 13.3539H40.8251V13.4236L40.8948 13.4231L40.8943 13.3539ZM45.2285 15.7689L45.2978 15.7699L45.2978 15.7699L45.2285 15.7689ZM42.8202 13.3405L42.8197 13.2713L42.8197 13.2713L42.8202 13.3405ZM47.1954 15.6974L47.1262 15.6968L47.1262 15.6968L47.1954 15.6974ZM25.6604 15.7159L25.5912 15.7151L25.5912 15.7151L25.6604 15.7159ZM0.0692308 30.6063V24.3937H-0.0692308V30.6063H0.0692308ZM1.64203 16.572L4.04347 10.8414L3.91577 10.7879L1.51433 16.5185L1.64203 16.572ZM3.87405 43.8323L1.53154 38.0774L1.4033 38.1296L3.7458 43.8845L3.87405 43.8323ZM12.7377 54.951L8.34083 50.5581L8.24297 50.656L12.6398 55.049L12.7377 54.951ZM8.34087 4.44195L12.7377 0.0489752L12.6399 -0.0489752L8.243 4.344L8.34087 4.44195ZM11.1539 7.9567L8.34657 4.35044L8.23731 4.4355L11.0447 8.04176L11.1539 7.9567ZM4.65467 31.2048C4.8515 32.7693 5.16362 34.298 5.58225 35.782L5.71551 35.7445C5.29874 34.267 4.98801 32.7451 4.79205 31.1876L4.65467 31.2048ZM8.43567 42.6374C9.26051 44.0995 10.1993 45.489 11.2399 46.7937L11.3482 46.7073C10.3121 45.4084 9.37746 44.025 8.55626 42.5693L8.43567 42.6374ZM11.0447 7.9566C10.0463 9.23439 9.14468 10.5914 8.351 12.0167L8.47197 12.0841C9.26214 10.6651 10.1598 9.31403 11.1538 8.04186L11.0447 7.9566ZM5.54868 18.8409C5.10254 20.447 4.78104 22.105 4.59523 23.8037L4.73287 23.8187C4.91786 22.1275 5.23794 20.4769 5.6821 18.8779L5.54868 18.8409ZM5.64982 18.7993L1.61261 16.4852L1.54375 16.6053L5.58096 18.9194L5.64982 18.7993ZM0.00857958 24.4624L4.67263 23.8799L4.65547 23.7425L-0.00857958 24.325L0.00857958 24.4624ZM3.96102 10.8813L8.39289 12.1171L8.43008 11.9837L3.99821 10.748L3.96102 10.8813ZM16.5399 51.9196L12.6463 54.9453L12.7312 55.0547L16.6249 52.0289L16.5399 51.9196ZM8.34653 50.6496L11.3487 46.793L11.2394 46.708L8.23727 50.5645L8.34653 50.6496ZM8.47805 42.5365L3.79201 43.7915L3.82783 43.9252L8.51388 42.6702L8.47805 42.5365ZM1.50123 38.1639L5.68269 35.8237L5.61507 35.7028L1.43361 38.0431L1.50123 38.1639ZM4.73194 31.1275L0.00857953 30.5376L-0.00857953 30.675L4.71478 31.2649L4.73194 31.1275ZM10.5634 27.001C10.5634 18.576 14.7379 11.1251 21.1334 6.60041L21.0534 6.48737C14.6228 11.0368 10.4249 18.5291 10.4249 27.001H10.5634ZM12.6463 0.0546256L21.0509 6.59852L21.136 6.48927L12.7313 -0.0546256L12.6463 0.0546256ZM21.834 47.8797C15.0445 43.4132 10.5634 35.7299 10.5634 27.001H10.4249C10.4249 35.7785 14.9311 43.5044 21.7579 47.9954L21.834 47.8797ZM21.7535 47.8828L16.544 51.9227L16.6289 52.0321L21.8384 47.9922L21.7535 47.8828ZM16.629 51.9228L16.6249 51.9196L16.5399 52.0289L16.544 52.032L16.629 51.9228ZM71.5692 30.6063V24.3937H71.4308V30.6063H71.5692ZM69.9857 16.5185L67.5842 10.7879L67.4565 10.8414L69.858 16.572L69.9857 16.5185ZM67.7542 43.8845L70.0967 38.1296L69.9684 38.0774L67.6259 43.8323L67.7542 43.8845ZM58.8602 55.049L63.257 50.656L63.1592 50.5581L58.7623 54.951L58.8602 55.049ZM63.257 4.344L58.8601 -0.0489752L58.7623 0.0489752L63.1591 4.44195L63.257 4.344ZM60.4553 8.04176L63.2627 4.4355L63.1534 4.35044L60.3461 7.9567L60.4553 8.04176ZM66.7079 31.1876C66.512 32.7451 66.2012 34.267 65.7845 35.7445L65.9177 35.782C66.3364 34.298 66.6485 32.7693 66.8453 31.2048L66.7079 31.1876ZM62.9437 42.5693C62.1225 44.025 61.1879 45.4084 60.1518 46.7073L60.26 46.7937C61.3007 45.489 62.2395 44.0995 63.0643 42.6374L62.9437 42.5693ZM60.3462 8.04186C61.3402 9.31403 62.2378 10.6651 63.028 12.0841L63.149 12.0167C62.3553 10.5914 61.4537 9.23439 60.4553 7.9566L60.3462 8.04186ZM65.8179 18.8779C66.2621 20.4769 66.5821 22.1275 66.7671 23.8187L66.9048 23.8037C66.719 22.105 66.3974 20.447 65.9513 18.8409L65.8179 18.8779ZM65.919 18.9194L69.9562 16.6053L69.8874 16.4852L65.8502 18.7993L65.919 18.9194ZM71.5086 24.325L66.8445 23.7425L66.8274 23.8799L71.4914 24.4624L71.5086 24.325ZM67.5018 10.748L63.0699 11.9837L63.1071 12.1171L67.539 10.8813L67.5018 10.748ZM54.8751 52.0289L58.7688 55.0547L58.8537 54.9453L54.96 51.9196L54.8751 52.0289ZM63.2627 50.5645L60.2605 46.708L60.1513 46.793L63.1535 50.6496L63.2627 50.5645ZM62.9861 42.6702L67.6722 43.9252L67.708 43.7915L63.0219 42.5365L62.9861 42.6702ZM70.0664 38.0431L65.8849 35.7028L65.8173 35.8237L69.9988 38.1639L70.0664 38.0431ZM66.7852 31.2649L71.5086 30.675L71.4914 30.5376L66.7681 31.1275L66.7852 31.2649ZM61.0751 27.001C61.0751 18.5291 56.8771 11.0368 50.4465 6.48737L50.3666 6.60041C56.7621 11.1251 60.9366 18.576 60.9366 27.001H61.0751ZM58.7687 -0.0546256L50.364 6.48927L50.4491 6.59852L58.8537 0.0546256L58.7687 -0.0546256ZM49.7421 47.9954C56.5689 43.5044 61.0751 35.7785 61.0751 27.001H60.9366C60.9366 35.7299 56.4555 43.4132 49.666 47.8797L49.7421 47.9954ZM49.6616 47.9922L54.8711 52.0321L54.956 51.9227L49.7465 47.8828L49.6616 47.9922ZM54.9561 52.032L54.9601 52.0289L54.875 51.9197L54.871 51.9228L54.9561 52.032ZM44.7721 4.5139C45.409 4.51066 45.9269 5.02561 45.9269 5.66182H46.0654C46.0654 4.94875 45.4849 4.37181 44.7713 4.37544L44.7721 4.5139ZM38.2596 30.0048L38.1003 4.47922L37.9619 4.48009L38.1211 30.0056L38.2596 30.0048ZM39.4086 31.1455C38.7767 31.1455 38.2635 30.6359 38.2596 30.0048L38.1211 30.0056C38.1255 30.713 38.7007 31.284 39.4086 31.284V31.1455ZM48.9199 0.959915H35.5193V1.09838H48.9199V0.959915ZM48.9891 7.35839V1.02915H48.8507V7.35839H48.9891ZM45.9961 7.42762H48.9199V7.28916H45.9961V7.42762ZM45.9269 5.66182V7.35839H46.0654V5.66182H45.9269ZM38.0314 4.54888L44.7721 4.5139L44.7713 4.37544L38.0307 4.41042L38.0314 4.54888ZM41.0219 31.1455H39.4086V31.284H41.0219V31.1455ZM41.0911 33.6491V31.2148H40.9526V33.6491H41.0911ZM35.5193 33.7183H41.0219V33.5799H35.5193V33.7183ZM26.2673 4.37544C25.5537 4.37181 24.9732 4.94875 24.9732 5.66182H25.1117C25.1117 5.02561 25.6296 4.51066 26.2665 4.5139L26.2673 4.37544ZM32.9175 30.0056L33.0767 4.48009L32.9383 4.47922L32.779 30.0048L32.9175 30.0056ZM31.63 31.284C32.3379 31.284 32.9131 30.713 32.9175 30.0056L32.779 30.0048C32.7751 30.6359 32.2619 31.1455 31.63 31.1455V31.284ZM22.1187 1.09838H35.5193V0.959915H22.1187V1.09838ZM22.1879 7.35839V1.02915H22.0495V7.35839H22.1879ZM25.0425 7.28916H22.1187V7.42762H25.0425V7.28916ZM24.9732 5.66182V7.35839H25.1117V5.66182H24.9732ZM33.0079 4.41042L26.2673 4.37544L26.2665 4.5139L33.0072 4.54888L33.0079 4.41042ZM30.0167 31.284H31.63V31.1455H30.0167V31.284ZM30.086 33.6491V31.2148H29.9475V33.6491H30.086ZM35.5193 33.5799H30.0167V33.7183H35.5193V33.5799ZM40.8943 12.419H51.5998V12.2805H40.8943V12.419ZM46.9875 33.2578C46.9875 35.4046 46.4622 37.3191 45.4129 39.0033L45.5304 39.0765C46.5945 37.3686 47.126 35.4283 47.126 33.2578H46.9875ZM45.4128 39.0034C44.374 40.6777 42.9055 42.0005 41.0052 42.9718L41.0682 43.0951C42.9891 42.1133 44.4773 40.7738 45.5305 39.0764L45.4128 39.0034ZM41.0054 42.9717C39.1063 43.9321 36.8758 44.4136 34.3121 44.4136V44.5521C36.8932 44.5521 39.1458 44.0673 41.0679 43.0952L41.0054 42.9717ZM34.3121 44.4136C31.7484 44.4136 29.518 43.9321 27.6188 42.9717L27.5563 43.0952C29.4784 44.0673 31.731 44.5521 34.3121 44.5521V44.4136ZM27.6191 42.9718C25.7187 42.0005 24.2448 40.6776 23.1952 39.0032L23.0779 39.0767C24.1418 40.7739 25.6352 42.1133 27.556 43.0951L27.6191 42.9718ZM23.1955 39.0036C22.1567 37.3193 21.6367 35.4048 21.6367 33.2578H21.4982C21.4982 35.4282 22.0243 37.3684 23.0776 39.0763L23.1955 39.0036ZM17.4892 12.419H30.7436V12.2805H17.4892V12.419ZM25.3666 33.186C25.3666 33.9559 25.3568 34.9936 25.4353 35.9891C25.5137 36.9816 25.6805 37.9457 26.0415 38.5619L26.161 38.4919C25.8174 37.9055 25.6516 36.97 25.5734 35.9782C25.4954 34.9894 25.5051 33.9581 25.5051 33.186H25.3666ZM26.0416 38.5621C26.3968 39.1633 26.7462 39.6128 27.2762 40.0442C27.8046 40.4742 28.5101 40.8843 29.5742 41.4106L29.6356 41.2865C28.5736 40.7612 27.8795 40.3567 27.3636 39.9368C26.8495 39.5184 26.5101 39.0829 26.1608 38.4917L26.0416 38.5621ZM29.5736 41.4103C30.8697 42.0684 32.4779 42.4355 34.3121 42.4355V42.297C32.4959 42.297 30.9099 41.9335 29.6363 41.2868L29.5736 41.4103ZM34.3121 42.4355C36.1459 42.4355 37.7263 42.0946 39.0511 41.4101L38.9875 41.2871C37.6865 41.9594 36.1289 42.297 34.3121 42.297V42.4355ZM39.0515 41.4099C39.7079 41.0655 40.498 40.6439 41.2287 40.1651C41.9585 39.6869 42.6348 39.1482 43.0598 38.5678L42.9481 38.486C42.538 39.0461 41.8784 39.5739 41.1528 40.0493C40.4283 40.524 39.6436 40.9429 38.9871 41.2873L39.0515 41.4099ZM43.0598 38.5678C43.4166 38.0805 43.9115 37.0517 44.3164 35.9604C44.7211 34.8698 45.0419 33.7014 45.0419 32.935H44.9034C44.9034 33.6748 44.5908 34.8231 44.1866 35.9122C43.7827 37.0006 43.2932 38.0147 42.9481 38.486L43.0598 38.5678ZM25.5912 15.7151L25.3666 33.1851L25.5051 33.1869L25.7296 15.7168L25.5912 15.7151ZM30.6744 12.3497V13.3539H30.8128V12.3497H30.6744ZM30.7436 13.2847H28.0521V13.4231H30.7436V13.2847ZM21.6367 33.2578V15.7467H21.4982V33.2578H21.6367ZM19.1755 13.2847H17.4892V13.4231H19.1755V13.2847ZM17.5584 13.3539V12.3497H17.42V13.3539H17.5584ZM51.5306 12.3497V13.3235H51.6691V12.3497H51.5306ZM51.5998 13.2542H49.5873V13.3927H51.5998V13.2542ZM47.1262 15.6968L46.9875 33.2573L47.126 33.2584L47.2647 15.6979L47.1262 15.6968ZM40.9636 13.3539V12.3497H40.8251V13.3539H40.9636ZM45.0419 32.936L45.2978 15.7699L45.1593 15.7679L44.9034 32.934L45.0419 32.936ZM42.8197 13.2713L40.8939 13.2847L40.8948 13.4231L42.8207 13.4097L42.8197 13.2713ZM45.2978 15.7699C45.3184 14.3893 44.2001 13.2617 42.8197 13.2713L42.8207 13.4097C44.1233 13.4007 45.1788 14.4648 45.1593 15.7679L45.2978 15.7699ZM21.6367 15.7467C21.6367 14.387 20.5348 13.2847 19.1755 13.2847V13.4231C20.4583 13.4231 21.4982 14.4634 21.4982 15.7467H21.6367ZM49.5873 13.2542C48.2356 13.2542 47.1369 14.3447 47.1262 15.6968L47.2647 15.6979C47.2747 14.4218 48.3117 13.3927 49.5873 13.3927V13.2542ZM25.7296 15.7168C25.7459 14.4453 26.781 13.4231 28.0521 13.4231V13.2847C26.7052 13.2847 25.6085 14.3678 25.5912 15.7151L25.7296 15.7168Z" fill="#888888" mask="url(#path-1-inside-1_813_13)"/>
<path d="M26.5804 52.6572L26.556 52.6816C26.2891 52.6719 26.1043 52.667 26.0018 52.667C25.9106 52.667 25.7666 52.6719 25.5697 52.6816C25.5322 52.6003 25.4484 52.4855 25.3182 52.3374L24.5931 51.5098C24.4352 51.3307 24.2651 51.1663 24.0828 51.0166V51.5977C24.0828 51.985 24.0934 52.2373 24.1146 52.3545C24.1227 52.4017 24.1504 52.4318 24.1976 52.4448C24.222 52.4513 24.3172 52.4595 24.4832 52.4692L24.5077 52.4937V52.6572L24.4857 52.6816C24.3229 52.6719 24.0723 52.667 23.7337 52.667C23.3838 52.667 23.1331 52.6719 22.9818 52.6816L22.9574 52.6597V52.4937L22.9818 52.4692C23.1478 52.4595 23.243 52.4513 23.2674 52.4448C23.3146 52.4318 23.3423 52.4017 23.3504 52.3545C23.3716 52.2373 23.3822 51.985 23.3822 51.5977V50.3062C23.3822 49.9188 23.3716 49.6665 23.3504 49.5493C23.3423 49.5021 23.3146 49.472 23.2674 49.459C23.243 49.4525 23.1478 49.4443 22.9818 49.4346L22.9574 49.4102V49.2441L22.9818 49.2222C23.138 49.2319 23.3887 49.2368 23.7337 49.2368C24.0869 49.2368 24.3376 49.2319 24.4857 49.2222L24.5077 49.2441V49.4126L24.4832 49.4346C24.3172 49.4443 24.222 49.4525 24.1976 49.459C24.1504 49.472 24.1227 49.5021 24.1146 49.5493C24.0934 49.6665 24.0828 49.9188 24.0828 50.3062V50.9116C24.3872 50.6284 24.6053 50.4185 24.7371 50.2817L25.0838 49.9229C25.2026 49.7992 25.3548 49.6299 25.5404 49.415V49.2466L25.5672 49.2222C25.6925 49.2319 25.8154 49.2368 25.9359 49.2368C26.0775 49.2368 26.2435 49.2319 26.4339 49.2222L26.4583 49.2466V49.3979L26.4339 49.4224C26.2451 49.4224 26.1051 49.4525 26.014 49.5127C25.8822 49.6006 25.6323 49.8187 25.2645 50.167L24.7713 50.6357C24.8413 50.7301 24.9552 50.8693 25.1131 51.0532L25.66 51.688C26.0653 52.1584 26.2996 52.4082 26.3631 52.4375C26.4022 52.4554 26.4665 52.4652 26.556 52.4668L26.5804 52.4937V52.6572ZM30.3242 52.6572L30.2998 52.6816C30.1387 52.6719 29.888 52.667 29.5479 52.667C29.1995 52.667 28.9489 52.6719 28.7959 52.6816L28.7715 52.6597V52.4937L28.7983 52.4692C28.9644 52.4595 29.0596 52.4513 29.084 52.4448C29.1312 52.4318 29.1589 52.4017 29.167 52.3545C29.1882 52.2373 29.1987 51.985 29.1987 51.5977V51.0093C29.1157 51.0011 28.8521 50.9971 28.4077 50.9971C27.9976 50.9971 27.7274 51.0011 27.5972 51.0093V51.5977C27.5972 51.985 27.6077 52.2373 27.6289 52.3545C27.637 52.4017 27.6647 52.4318 27.7119 52.4448C27.7363 52.4513 27.8315 52.4595 27.9976 52.4692L28.022 52.4937V52.6572L28 52.6816C27.8372 52.6719 27.5866 52.667 27.248 52.667C26.8981 52.667 26.6475 52.6719 26.4961 52.6816L26.4717 52.6597V52.4937L26.4961 52.4692C26.6621 52.4595 26.7573 52.4513 26.7817 52.4448C26.8289 52.4318 26.8566 52.4017 26.8647 52.3545C26.8859 52.2373 26.8965 51.985 26.8965 51.5977V50.3062C26.8965 49.9188 26.8859 49.6665 26.8647 49.5493C26.8566 49.5021 26.8289 49.472 26.7817 49.459C26.7573 49.4525 26.6621 49.4443 26.4961 49.4346L26.4717 49.4102V49.2441L26.4961 49.2222C26.6523 49.2319 26.903 49.2368 27.248 49.2368C27.6012 49.2368 27.8519 49.2319 28 49.2222L28.022 49.2441V49.4126L27.9976 49.4346C27.8315 49.4443 27.7363 49.4525 27.7119 49.459C27.6647 49.472 27.637 49.5021 27.6289 49.5493C27.6077 49.6665 27.5972 49.9188 27.5972 50.3062V50.709C27.7697 50.7171 28.0073 50.7212 28.3101 50.7212C28.7853 50.7212 29.0815 50.7171 29.1987 50.709V50.3062C29.1987 49.9188 29.1882 49.6665 29.167 49.5493C29.1589 49.5021 29.1312 49.472 29.084 49.459C29.0596 49.4525 28.9644 49.4443 28.7983 49.4346L28.7715 49.4102V49.2441L28.7959 49.2222C28.9538 49.2319 29.2044 49.2368 29.5479 49.2368C29.9027 49.2368 30.1533 49.2319 30.2998 49.2222L30.3242 49.2441V49.4126L30.3022 49.4346C30.133 49.4443 30.0369 49.4525 30.0142 49.459C29.967 49.472 29.9393 49.5021 29.9312 49.5493C29.91 49.6665 29.8994 49.9188 29.8994 50.3062V51.5977C29.8994 51.985 29.91 52.2373 29.9312 52.3545C29.9393 52.4017 29.967 52.4318 30.0142 52.4448C30.0386 52.4513 30.1338 52.4595 30.2998 52.4692L30.3242 52.4937V52.6572ZM33.9069 49.4102L33.8825 49.4346C33.6904 49.4346 33.5822 49.4858 33.5578 49.5884C33.5448 49.6453 33.535 49.769 33.5285 49.9595C33.5236 50.1011 33.5212 50.3053 33.5212 50.5723V51.3242C33.5212 51.8076 33.4259 52.1527 33.2355 52.3594C32.9832 52.6328 32.6235 52.7695 32.1564 52.7695C31.73 52.7695 31.3971 52.6987 31.1579 52.5571C30.9561 52.4367 30.8242 52.2658 30.7624 52.0444C30.7233 51.9028 30.7038 51.5334 30.7038 50.936V50.3062C30.7038 49.9188 30.6932 49.6665 30.672 49.5493C30.6639 49.5021 30.6362 49.472 30.589 49.459C30.5646 49.4525 30.4694 49.4443 30.3034 49.4346L30.279 49.4102V49.2466L30.3034 49.2222C30.4596 49.2319 30.7103 49.2368 31.0553 49.2368C31.4069 49.2368 31.6567 49.2319 31.8049 49.2222L31.8293 49.2466V49.4102L31.8049 49.4346C31.6388 49.4443 31.5436 49.4525 31.5192 49.459C31.472 49.472 31.4443 49.5021 31.4362 49.5493C31.415 49.6665 31.4045 49.9188 31.4045 50.3062V50.8091C31.4045 51.4243 31.4321 51.8011 31.4875 51.9395C31.5981 52.2129 31.8708 52.3496 32.3053 52.3496C32.5902 52.3496 32.8123 52.2796 32.9718 52.1396C33.0467 52.0729 33.0988 52.0054 33.1281 51.937C33.1574 51.8687 33.1802 51.7629 33.1965 51.6196C33.2111 51.4862 33.2184 51.3511 33.2184 51.2144V50.7065C33.2184 50.2801 33.2168 49.9888 33.2135 49.8325C33.2103 49.686 33.2005 49.5908 33.1842 49.5469C33.1712 49.5143 33.1427 49.4891 33.0988 49.4712C33.0614 49.4565 32.9613 49.4443 32.7985 49.4346L32.7741 49.4102V49.2466L32.7985 49.2222C32.9401 49.2319 33.0858 49.2368 33.2355 49.2368C33.3478 49.2368 33.5635 49.2319 33.8825 49.2222L33.9069 49.2466V49.4102ZM35.5145 49.4126L35.4901 49.4346C35.3241 49.4443 35.2288 49.4525 35.2044 49.459C35.1572 49.472 35.1296 49.5021 35.1214 49.5493C35.1003 49.6681 35.0897 49.9204 35.0897 50.3062V52.1226C35.0897 52.4497 35.0547 52.7044 34.9847 52.8867C34.9049 53.0951 34.7617 53.2896 34.555 53.4702C34.3288 53.6688 34.1123 53.7681 33.9056 53.7681C33.8372 53.7681 33.7705 53.7559 33.7054 53.7314C33.7135 53.6094 33.7176 53.4588 33.7176 53.2798L33.7738 53.2456C33.9056 53.3644 34.022 53.4238 34.1229 53.4238C34.2629 53.4238 34.341 53.3498 34.3573 53.2017C34.3784 53.0096 34.389 52.7215 34.389 52.3374V50.3062C34.389 49.9204 34.3784 49.6681 34.3573 49.5493C34.3491 49.5021 34.3215 49.472 34.2743 49.459C34.2629 49.4557 34.1489 49.4476 33.9325 49.4346L33.908 49.4102V49.2441L33.9325 49.2222C34.1571 49.2319 34.4256 49.2368 34.7381 49.2368C35.0929 49.2368 35.3436 49.2319 35.4901 49.2222L35.5145 49.2441V49.4126ZM39.0898 52.6572L39.0679 52.6816C38.7065 52.6719 38.4884 52.667 38.4136 52.667C38.1141 52.667 37.8358 52.6719 37.5786 52.6816L37.5566 52.6572V52.5034L37.5811 52.4766L37.7935 52.4644C37.883 52.4595 37.9277 52.4277 37.9277 52.3691C37.9277 52.335 37.9049 52.2585 37.8594 52.1396L37.6616 51.6245C37.437 51.6213 37.2075 51.6196 36.9731 51.6196C36.8462 51.6196 36.6574 51.6213 36.4067 51.6245L36.2993 51.9224C36.2179 52.1486 36.1772 52.2902 36.1772 52.3472C36.1772 52.409 36.2155 52.4456 36.292 52.457C36.3343 52.4635 36.4173 52.4701 36.541 52.4766L36.5654 52.501V52.6572L36.541 52.6816C36.2399 52.6719 36.0462 52.667 35.96 52.667C35.8932 52.667 35.728 52.6719 35.4644 52.6816L35.4399 52.6597V52.501L35.4668 52.4766C35.6344 52.4668 35.737 52.4334 35.7744 52.3765C35.8135 52.3195 35.9575 51.9801 36.2065 51.3584L36.8438 49.7642C36.891 49.6405 36.9626 49.4541 37.0586 49.2051H37.4053L38.6992 52.2495C38.7497 52.3651 38.7952 52.4302 38.8359 52.4448C38.8896 52.4644 38.967 52.4741 39.0679 52.4741L39.0898 52.501V52.6572ZM37.542 51.3438L37.0195 50.0645L36.519 51.3438C36.6525 51.3486 36.8258 51.3511 37.0391 51.3511C37.2458 51.3511 37.4134 51.3486 37.542 51.3438ZM42.8825 49.4102L42.8556 49.4346C42.6896 49.4443 42.5944 49.4525 42.57 49.459C42.5228 49.472 42.4951 49.5021 42.487 49.5493C42.4658 49.6665 42.4552 49.9188 42.4552 50.3062V51.2974C42.4552 52.0282 42.4658 52.5042 42.487 52.7256L42.4552 52.7476C42.2713 52.7166 42.1322 52.6947 42.0378 52.6816C41.6016 52.1917 40.8569 51.2982 39.8039 50.001V51.5977C39.8039 51.985 39.8145 52.2373 39.8356 52.3545C39.8438 52.4017 39.8714 52.4318 39.9186 52.4448C39.943 52.4513 40.0382 52.4595 40.2043 52.4692L40.2287 52.4937V52.6597L40.2043 52.6816C40.0171 52.6719 39.8429 52.667 39.6818 52.667C39.4946 52.667 39.3066 52.6719 39.1178 52.6816L39.0934 52.6597V52.4937L39.1178 52.4692C39.2839 52.4595 39.3791 52.4513 39.4035 52.4448C39.4507 52.4318 39.4784 52.4017 39.4865 52.3545C39.5077 52.2373 39.5182 51.985 39.5182 51.5977V50.3062C39.5182 49.9188 39.5077 49.6665 39.4865 49.5493C39.4784 49.5021 39.4507 49.472 39.4035 49.459C39.3791 49.4525 39.2839 49.4443 39.1178 49.4346L39.0934 49.4102V49.2441L39.1178 49.2222C39.2725 49.2319 39.4198 49.2368 39.5597 49.2368C39.7795 49.2368 39.9618 49.2319 40.1066 49.2222C40.6925 50.0034 41.381 50.8408 42.172 51.7344V50.3062C42.172 49.9188 42.1615 49.6665 42.1403 49.5493C42.1322 49.5021 42.1045 49.472 42.0573 49.459C42.0329 49.4525 41.9377 49.4443 41.7716 49.4346L41.7472 49.4102V49.2441L41.7716 49.2222C41.9539 49.2319 42.1273 49.2368 42.2917 49.2368C42.5016 49.2368 42.6904 49.2319 42.8581 49.2222L42.8825 49.2441V49.4102ZM46.6361 50.748C46.6361 51.2998 46.4562 51.7572 46.0965 52.1201C45.9207 52.2975 45.7075 52.4351 45.4569 52.5327C45.1883 52.6385 44.875 52.6882 44.5169 52.6816L43.6551 52.667C43.4207 52.6637 43.2271 52.6686 43.0741 52.6816L43.0496 52.6572V52.5889L43.0618 52.5596C43.1823 52.4831 43.2474 52.4351 43.2572 52.4155C43.2718 52.3862 43.2808 52.278 43.284 52.0908L43.2913 51.5439V50.3062C43.2913 49.9188 43.2808 49.6665 43.2596 49.5493C43.2515 49.5021 43.2238 49.472 43.1766 49.459C43.1522 49.4525 43.057 49.4443 42.891 49.4346L42.8665 49.4102V49.2441L42.891 49.2222C43.0635 49.2319 43.2279 49.2368 43.3841 49.2368C43.7633 49.2368 44.1051 49.2319 44.4095 49.2222C44.5609 49.2173 44.7131 49.2148 44.866 49.2148C45.2892 49.2148 45.6139 49.2629 45.8402 49.3589C46.0876 49.4647 46.2813 49.6307 46.4212 49.8569C46.5645 50.0897 46.6361 50.3867 46.6361 50.748ZM45.8866 50.8652C45.8866 50.4144 45.7775 50.0677 45.5594 49.8252C45.4455 49.6982 45.3031 49.6087 45.1322 49.5566C44.9694 49.5078 44.7424 49.4834 44.451 49.4834C44.2996 49.4834 44.1548 49.494 44.0164 49.5151C44.0002 49.6974 43.992 50.1385 43.992 50.8384L43.9969 51.9053C43.9985 52.1429 44.005 52.3008 44.0164 52.3789C44.1597 52.4017 44.3062 52.4131 44.4559 52.4131C44.7798 52.4131 45.0353 52.3659 45.2225 52.2715C45.4243 52.1689 45.5846 51.9948 45.7035 51.749C45.8255 51.4951 45.8866 51.2005 45.8866 50.8652Z" fill="#59B0F6"/>
<path d="M85.97 37C85.79 37 85.64 36.94 85.52 36.82C85.4 36.7 85.34 36.55 85.34 36.37V14.65C85.34 14.47 85.4 14.32 85.52 14.2C85.64 14.08 85.79 14.02 85.97 14.02H88.31C88.49 14.02 88.64 14.08 88.76 14.2C88.88 14.32 88.94 14.47 88.94 14.65V25.93H89.96L95.33 20.17C95.55 19.93 95.82 19.81 96.14 19.81H98.87C99.05 19.81 99.2 19.87 99.32 19.99C99.44 20.09 99.5 20.22 99.5 20.38C99.5 20.52 99.44 20.67 99.32 20.83L92.87 27.55L99.71 36.07C99.81 36.21 99.86 36.34 99.86 36.46C99.86 36.62 99.81 36.75 99.71 36.85C99.61 36.95 99.47 37 99.29 37H96.62C96.24 37 95.93 36.85 95.69 36.55L89.93 29.29H88.94V36.37C88.94 36.55 88.88 36.7 88.76 36.82C88.64 36.94 88.49 37 88.31 37H85.97ZM110.175 37.39C109.295 37.39 108.465 37.2 107.685 36.82C106.925 36.42 106.285 35.84 105.765 35.08V36.37C105.765 36.55 105.705 36.7 105.585 36.82C105.465 36.94 105.315 37 105.135 37H103.185C103.005 37 102.855 36.94 102.735 36.82C102.615 36.7 102.555 36.55 102.555 36.37V14.65C102.555 14.47 102.615 14.32 102.735 14.2C102.855 14.08 103.005 14.02 103.185 14.02H105.525C105.705 14.02 105.855 14.08 105.975 14.2C106.095 14.32 106.155 14.47 106.155 14.65V21.34C106.655 20.72 107.255 20.25 107.955 19.93C108.675 19.59 109.415 19.42 110.175 19.42C111.395 19.42 112.515 19.74 113.535 20.38C114.555 21 115.365 21.84 115.965 22.9C116.565 23.96 116.865 25.1 116.865 26.32V30.49C116.865 31.71 116.555 32.85 115.935 33.91C115.335 34.97 114.515 35.82 113.475 36.46C112.455 37.08 111.355 37.39 110.175 37.39ZM109.725 33.94C110.705 33.94 111.535 33.6 112.215 32.92C112.915 32.22 113.265 31.38 113.265 30.4V26.41C113.265 25.43 112.915 24.6 112.215 23.92C111.535 23.22 110.705 22.87 109.725 22.87C108.745 22.87 107.905 23.22 107.205 23.92C106.505 24.6 106.155 25.43 106.155 26.41V30.4C106.155 31.38 106.505 32.22 107.205 32.92C107.905 33.6 108.745 33.94 109.725 33.94ZM127.017 37C125.457 37 124.187 36.52 123.207 35.56C122.247 34.6 121.767 33.34 121.767 31.78V23.17H119.697C119.517 23.17 119.367 23.11 119.247 22.99C119.127 22.87 119.067 22.72 119.067 22.54V20.44C119.067 20.26 119.127 20.11 119.247 19.99C119.367 19.87 119.517 19.81 119.697 19.81H121.767V16.57C121.767 16.39 121.827 16.24 121.947 16.12C122.067 16 122.217 15.94 122.397 15.94H124.737C124.917 15.94 125.067 16 125.187 16.12C125.307 16.24 125.367 16.39 125.367 16.57V19.81H130.437C130.617 19.81 130.767 19.87 130.887 19.99C131.007 20.11 131.067 20.26 131.067 20.44V22.57C131.067 22.75 131.007 22.9 130.887 23.02C130.767 23.14 130.617 23.2 130.437 23.2H125.367V31.63C125.367 32.23 125.537 32.71 125.877 33.07C126.237 33.43 126.707 33.61 127.287 33.61L130.437 33.64C130.617 33.64 130.767 33.7 130.887 33.82C131.007 33.94 131.067 34.09 131.067 34.27V36.37C131.067 36.55 131.007 36.7 130.887 36.82C130.767 36.94 130.617 37 130.437 37H127.017ZM140.371 37.39C139.231 37.39 138.201 37.12 137.281 36.58C136.381 36.04 135.671 35.29 135.151 34.33C134.631 33.37 134.371 32.29 134.371 31.09V20.44C134.371 20.26 134.431 20.11 134.551 19.99C134.671 19.87 134.821 19.81 135.001 19.81H137.341C137.521 19.81 137.671 19.87 137.791 19.99C137.911 20.11 137.971 20.26 137.971 20.44V30.64C137.971 31.7 138.241 32.52 138.781 33.1C139.321 33.66 140.081 33.94 141.061 33.94C142.241 33.94 143.171 33.56 143.851 32.8C144.551 32.02 144.901 30.96 144.901 29.62V20.44C144.901 20.26 144.961 20.11 145.081 19.99C145.201 19.87 145.351 19.81 145.531 19.81H147.871C148.051 19.81 148.201 19.87 148.321 19.99C148.441 20.11 148.501 20.26 148.501 20.44V36.37C148.501 36.55 148.441 36.7 148.321 36.82C148.201 36.94 148.051 37 147.871 37H145.531C145.351 37 145.201 36.94 145.081 36.82C144.961 36.7 144.901 36.55 144.901 36.37V34.96C144.341 35.72 143.671 36.32 142.891 36.76C142.131 37.18 141.291 37.39 140.371 37.39ZM159.602 37C158.042 37 156.772 36.52 155.792 35.56C154.832 34.6 154.352 33.34 154.352 31.78V23.17H152.282C152.102 23.17 151.952 23.11 151.832 22.99C151.712 22.87 151.652 22.72 151.652 22.54V20.44C151.652 20.26 151.712 20.11 151.832 19.99C151.952 19.87 152.102 19.81 152.282 19.81H154.352V16.57C154.352 16.39 154.412 16.24 154.532 16.12C154.652 16 154.802 15.94 154.982 15.94H157.322C157.502 15.94 157.652 16 157.772 16.12C157.892 16.24 157.952 16.39 157.952 16.57V19.81H163.022C163.202 19.81 163.352 19.87 163.472 19.99C163.592 20.11 163.652 20.26 163.652 20.44V22.57C163.652 22.75 163.592 22.9 163.472 23.02C163.352 23.14 163.202 23.2 163.022 23.2H157.952V31.63C157.952 32.23 158.122 32.71 158.462 33.07C158.822 33.43 159.292 33.61 159.872 33.61L163.022 33.64C163.202 33.64 163.352 33.7 163.472 33.82C163.592 33.94 163.652 34.09 163.652 34.27V36.37C163.652 36.55 163.592 36.7 163.472 36.82C163.352 36.94 163.202 37 163.022 37H159.602ZM169.642 37.72C168.942 37.72 168.342 37.48 167.842 37C167.362 36.52 167.122 35.93 167.122 35.23C167.122 34.53 167.362 33.94 167.842 33.46C168.342 32.98 168.942 32.74 169.642 32.74C170.322 32.74 170.902 32.99 171.382 33.49C171.862 33.97 172.102 34.55 172.102 35.23C172.102 35.91 171.862 36.5 171.382 37C170.902 37.48 170.322 37.72 169.642 37.72ZM182.402 37C180.842 37 179.572 36.52 178.592 35.56C177.632 34.6 177.152 33.34 177.152 31.78V23.17H175.082C174.902 23.17 174.752 23.11 174.632 22.99C174.512 22.87 174.452 22.72 174.452 22.54V20.44C174.452 20.26 174.512 20.11 174.632 19.99C174.752 19.87 174.902 19.81 175.082 19.81H177.152V16.57C177.152 16.39 177.212 16.24 177.332 16.12C177.452 16 177.602 15.94 177.782 15.94H180.122C180.302 15.94 180.452 16 180.572 16.12C180.692 16.24 180.752 16.39 180.752 16.57V19.81H185.822C186.002 19.81 186.152 19.87 186.272 19.99C186.392 20.11 186.452 20.26 186.452 20.44V22.57C186.452 22.75 186.392 22.9 186.272 23.02C186.152 23.14 186.002 23.2 185.822 23.2H180.752V31.63C180.752 32.23 180.922 32.71 181.262 33.07C181.622 33.43 182.092 33.61 182.672 33.61L185.822 33.64C186.002 33.64 186.152 33.7 186.272 33.82C186.392 33.94 186.452 34.09 186.452 34.27V36.37C186.452 36.55 186.392 36.7 186.272 36.82C186.152 36.94 186.002 37 185.822 37H182.402ZM189.88 37C189.7 37 189.55 36.94 189.43 36.82C189.31 36.7 189.25 36.55 189.25 36.37V34.15C189.25 33.97 189.31 33.82 189.43 33.7C189.55 33.58 189.7 33.52 189.88 33.52H192.16V23.2H189.58C189.4 23.2 189.25 23.14 189.13 23.02C189.01 22.9 188.95 22.75 188.95 22.57V20.44C188.95 20.26 189.01 20.11 189.13 19.99C189.25 19.87 189.4 19.81 189.58 19.81H194.23C194.59 19.81 194.89 19.94 195.13 20.2C195.39 20.44 195.52 20.74 195.52 21.1V22.18L197.14 20.89C197.74 20.41 198.26 20.08 198.7 19.9C199.14 19.7 199.66 19.6 200.26 19.6H201.19C201.37 19.6 201.52 19.66 201.64 19.78C201.76 19.9 201.82 20.05 201.82 20.23V22.54C201.82 22.72 201.76 22.87 201.64 22.99C201.52 23.11 201.37 23.17 201.19 23.17H200.41C199.89 23.17 199.44 23.26 199.06 23.44C198.68 23.62 198.1 24.02 197.32 24.64L195.67 25.96V33.52H198.64C198.82 33.52 198.97 33.58 199.09 33.7C199.21 33.82 199.27 33.97 199.27 34.15V36.37C199.27 36.55 199.21 36.7 199.09 36.82C198.97 36.94 198.82 37 198.64 37H189.88ZM209.02 37.39C207.34 37.39 205.97 36.92 204.91 35.98C203.87 35.02 203.35 33.78 203.35 32.26C203.35 30.88 203.83 29.74 204.79 28.84C205.75 27.92 207.1 27.32 208.84 27.04C209.28 27 209.7 26.94 210.1 26.86C211.5 26.7 212.35 26.58 212.65 26.5C213.39 26.38 213.76 25.96 213.76 25.24C213.76 24.5 213.45 23.91 212.83 23.47C212.23 23.01 211.47 22.78 210.55 22.78C208.93 22.78 207.75 23.37 207.01 24.55C206.85 24.81 206.66 24.94 206.44 24.94C206.28 24.94 206.15 24.9 206.05 24.82L204.37 23.68C204.19 23.56 204.1 23.39 204.1 23.17C204.1 23.11 204.12 23.02 204.16 22.9C204.74 21.8 205.6 20.95 206.74 20.35C207.88 19.73 209.17 19.42 210.61 19.42C211.93 19.42 213.09 19.67 214.09 20.17C215.09 20.67 215.86 21.38 216.4 22.3C216.96 23.22 217.24 24.28 217.24 25.48V36.37C217.24 36.55 217.18 36.7 217.06 36.82C216.94 36.94 216.79 37 216.61 37H214.57C214.39 37 214.24 36.95 214.12 36.85C214 36.73 213.94 36.57 213.94 36.37V35.2C212.56 36.66 210.92 37.39 209.02 37.39ZM209.29 34.18C210.07 34.18 210.81 33.98 211.51 33.58C212.21 33.18 212.77 32.66 213.19 32.02C213.63 31.36 213.85 30.67 213.85 29.95V29.35L211.6 29.68C210.38 29.82 209.59 29.93 209.23 30.01C207.59 30.31 206.77 31.02 206.77 32.14C206.77 32.76 207 33.26 207.46 33.64C207.92 34 208.53 34.18 209.29 34.18ZM227.922 37.39C226.622 37.39 225.422 37.07 224.322 36.43C223.242 35.79 222.382 34.92 221.742 33.82C221.102 32.72 220.782 31.52 220.782 30.22V26.59C220.782 25.29 221.102 24.09 221.742 22.99C222.382 21.89 223.242 21.02 224.322 20.38C225.422 19.74 226.622 19.42 227.922 19.42C228.922 19.42 229.882 19.63 230.802 20.05C231.722 20.45 232.512 21.02 233.172 21.76C233.312 21.9 233.382 22.06 233.382 22.24C233.382 22.46 233.292 22.66 233.112 22.84L231.822 24.13C231.682 24.27 231.522 24.34 231.342 24.34C231.162 24.34 230.992 24.25 230.832 24.07C230.052 23.29 229.082 22.9 227.922 22.9C226.942 22.9 226.102 23.25 225.402 23.95C224.722 24.63 224.382 25.46 224.382 26.44V30.37C224.382 31.35 224.722 32.19 225.402 32.89C226.102 33.57 226.942 33.91 227.922 33.91C229.082 33.91 230.052 33.52 230.832 32.74C230.992 32.56 231.162 32.47 231.342 32.47C231.522 32.47 231.682 32.54 231.822 32.68L233.112 33.97C233.292 34.15 233.382 34.35 233.382 34.57C233.382 34.75 233.312 34.91 233.172 35.05C232.512 35.79 231.722 36.37 230.802 36.79C229.882 37.19 228.922 37.39 227.922 37.39ZM237.529 37C237.349 37 237.199 36.94 237.079 36.82C236.959 36.7 236.899 36.55 236.899 36.37V14.65C236.899 14.47 236.959 14.32 237.079 14.2C237.199 14.08 237.349 14.02 237.529 14.02H239.869C240.049 14.02 240.199 14.08 240.319 14.2C240.439 14.32 240.499 14.47 240.499 14.65V25.93H241.519L246.889 20.17C247.109 19.93 247.379 19.81 247.699 19.81H250.429C250.609 19.81 250.759 19.87 250.879 19.99C250.999 20.09 251.059 20.22 251.059 20.38C251.059 20.52 250.999 20.67 250.879 20.83L244.429 27.55L251.269 36.07C251.369 36.21 251.419 36.34 251.419 36.46C251.419 36.62 251.369 36.75 251.269 36.85C251.169 36.95 251.029 37 250.849 37H248.179C247.799 37 247.489 36.85 247.249 36.55L241.489 29.29H240.499V36.37C240.499 36.55 240.439 36.7 240.319 36.82C240.199 36.94 240.049 37 239.869 37H237.529Z" fill="#181F48"/>
<path d="M85.52 36.82L86.2271 36.1129L86.2271 36.1129L85.52 36.82ZM85.52 14.2L84.8129 13.4929L84.8129 13.4929L85.52 14.2ZM88.76 14.2L89.4671 13.4929L89.4671 13.4929L88.76 14.2ZM88.94 25.93H87.94V26.93H88.94V25.93ZM89.96 25.93V26.93H90.3949L90.6914 26.6119L89.96 25.93ZM95.33 20.17L96.0615 20.8519L96.0672 20.8457L95.33 20.17ZM99.32 19.99L98.6129 20.6971L98.645 20.7292L98.6798 20.7582L99.32 19.99ZM99.32 20.83L100.041 21.5225L100.084 21.4786L100.12 21.43L99.32 20.83ZM92.87 27.55L92.1485 26.8575L91.5404 27.4912L92.0902 28.176L92.87 27.55ZM99.71 36.07L100.524 35.4888L100.507 35.4659L100.49 35.444L99.71 36.07ZM95.69 36.55L94.9066 37.1715L94.9091 37.1747L95.69 36.55ZM89.93 29.29L90.7134 28.6685L90.4131 28.29H89.93V29.29ZM88.94 29.29V28.29H87.94V29.29H88.94ZM88.76 36.82L88.0529 36.1129L88.0529 36.1129L88.76 36.82ZM85.97 36C85.9927 36 86.038 36.0042 86.0939 36.0265C86.1509 36.0493 86.1963 36.0821 86.2271 36.1129L84.8129 37.5271C85.1327 37.8469 85.5426 38 85.97 38V36ZM86.2271 36.1129C86.2579 36.1437 86.2907 36.1891 86.3135 36.2461C86.3358 36.302 86.34 36.3473 86.34 36.37H84.34C84.34 36.7974 84.4931 37.2073 84.8129 37.5271L86.2271 36.1129ZM86.34 36.37V14.65H84.34V36.37H86.34ZM86.34 14.65C86.34 14.6727 86.3358 14.718 86.3135 14.7739C86.2907 14.8309 86.2579 14.8763 86.2271 14.9071L84.8129 13.4929C84.4931 13.8127 84.34 14.2226 84.34 14.65H86.34ZM86.2271 14.9071C86.1963 14.9379 86.1509 14.9707 86.0939 14.9935C86.038 15.0158 85.9927 15.02 85.97 15.02V13.02C85.5426 13.02 85.1327 13.1731 84.8129 13.4929L86.2271 14.9071ZM85.97 15.02H88.31V13.02H85.97V15.02ZM88.31 15.02C88.2873 15.02 88.242 15.0158 88.1861 14.9935C88.1291 14.9707 88.0837 14.9379 88.0529 14.9071L89.4671 13.4929C89.1473 13.1731 88.7374 13.02 88.31 13.02V15.02ZM88.0529 14.9071C88.0221 14.8763 87.9893 14.8309 87.9665 14.7739C87.9442 14.718 87.94 14.6727 87.94 14.65H89.94C89.94 14.2226 89.7869 13.8127 89.4671 13.4929L88.0529 14.9071ZM87.94 14.65V25.93H89.94V14.65H87.94ZM88.94 26.93H89.96V24.93H88.94V26.93ZM90.6914 26.6119L96.0614 20.8519L94.5986 19.4881L89.2286 25.2481L90.6914 26.6119ZM96.0672 20.8457C96.0812 20.8304 96.0912 20.8222 96.0965 20.8184C96.0991 20.8164 96.1009 20.8153 96.1019 20.8147C96.1029 20.8141 96.1035 20.8139 96.1036 20.8138C96.1038 20.8137 96.1041 20.8136 96.1046 20.8134C96.1052 20.8133 96.1065 20.8129 96.1087 20.8124C96.1129 20.8116 96.1228 20.81 96.14 20.81V18.81C95.5342 18.81 94.9985 19.0517 94.5928 19.4943L96.0672 20.8457ZM96.14 20.81H98.87V18.81H96.14V20.81ZM98.87 20.81C98.8473 20.81 98.802 20.8058 98.7461 20.7835C98.6891 20.7607 98.6437 20.7279 98.6129 20.6971L100.027 19.2829C99.7073 18.9631 99.2974 18.81 98.87 18.81V20.81ZM98.6798 20.7582C98.6363 20.7219 98.5848 20.6633 98.547 20.5816C98.5096 20.5005 98.5 20.4276 98.5 20.38H100.5C100.5 19.9315 100.314 19.517 99.9602 19.2218L98.6798 20.7582ZM98.5 20.38C98.5 20.3048 98.5165 20.2513 98.5265 20.2261C98.5358 20.203 98.5393 20.2043 98.52 20.23L100.12 21.43C100.316 21.1687 100.5 20.8116 100.5 20.38H98.5ZM98.5985 20.1375L92.1485 26.8575L93.5915 28.2425L100.041 21.5225L98.5985 20.1375ZM92.0902 28.176L98.9302 36.696L100.49 35.444L93.6498 26.924L92.0902 28.176ZM98.8963 36.6512C98.9082 36.6679 98.9006 36.6612 98.8892 36.6315C98.8771 36.6001 98.86 36.5408 98.86 36.46H100.86C100.86 36.0589 100.694 35.7276 100.524 35.4888L98.8963 36.6512ZM98.86 36.46C98.86 36.4353 98.8641 36.3838 98.8892 36.3185C98.9152 36.2509 98.9555 36.1903 99.0029 36.1429L100.417 37.5571C100.73 37.2443 100.86 36.8472 100.86 36.46H98.86ZM99.0029 36.1429C99.0629 36.0828 99.1315 36.0429 99.1937 36.0208C99.2517 36 99.2888 36 99.29 36V38C99.6593 38 100.082 37.8923 100.417 37.5571L99.0029 36.1429ZM99.29 36H96.62V38H99.29V36ZM96.62 36C96.5651 36 96.5437 35.9901 96.5381 35.9873C96.5321 35.9844 96.5086 35.9725 96.4709 35.9253L94.9091 37.1747C95.3365 37.7089 95.9323 38 96.62 38V36ZM96.4734 35.9285L90.7134 28.6685L89.1466 29.9115L94.9066 37.1715L96.4734 35.9285ZM89.93 28.29H88.94V30.29H89.93V28.29ZM87.94 29.29V36.37H89.94V29.29H87.94ZM87.94 36.37C87.94 36.3473 87.9442 36.302 87.9665 36.2461C87.9893 36.1891 88.0221 36.1437 88.0529 36.1129L89.4671 37.5271C89.7869 37.2073 89.94 36.7974 89.94 36.37H87.94ZM88.0529 36.1129C88.0837 36.0821 88.1291 36.0493 88.1861 36.0265C88.242 36.0042 88.2873 36 88.31 36V38C88.7374 38 89.1473 37.8469 89.4671 37.5271L88.0529 36.1129ZM88.31 36H85.97V38H88.31V36ZM107.685 36.82L107.22 37.7049L107.234 37.7122L107.248 37.719L107.685 36.82ZM105.765 35.08L106.591 34.5153L104.765 31.8476V35.08H105.765ZM105.585 36.82L104.878 36.1129L105.585 36.82ZM102.735 36.82L103.443 36.1129L103.443 36.1129L102.735 36.82ZM102.735 14.2L102.028 13.4929L102.028 13.4929L102.735 14.2ZM105.975 14.2L106.683 13.4929L106.683 13.4929L105.975 14.2ZM106.155 21.34H105.155V24.173L106.934 21.9678L106.155 21.34ZM107.955 19.93L108.371 20.8395L108.383 20.8342L107.955 19.93ZM113.535 20.38L113.004 21.2271L113.01 21.2308L113.016 21.2345L113.535 20.38ZM115.965 22.9L116.836 22.4074L116.836 22.4074L115.965 22.9ZM115.935 33.91L115.072 33.4051L115.069 33.4112L115.065 33.4174L115.935 33.91ZM113.475 36.46L113.995 37.3145L114 37.3117L113.475 36.46ZM112.215 32.92L111.508 32.2129L111.508 32.2129L112.215 32.92ZM112.215 23.92L111.498 24.6168L111.508 24.6272L111.519 24.6373L112.215 23.92ZM107.205 23.92L107.902 24.6373L107.907 24.6322L107.913 24.6271L107.205 23.92ZM107.205 32.92L106.498 33.6271L106.504 33.6322L106.509 33.6373L107.205 32.92ZM110.175 36.39C109.445 36.39 108.765 36.2336 108.123 35.921L107.248 37.719C108.166 38.1664 109.146 38.39 110.175 38.39V36.39ZM108.151 35.9351C107.546 35.6164 107.026 35.1509 106.591 34.5153L104.94 35.6447C105.545 36.5291 106.305 37.2236 107.22 37.7049L108.151 35.9351ZM104.765 35.08V36.37H106.765V35.08H104.765ZM104.765 36.37C104.765 36.3473 104.77 36.302 104.792 36.2461C104.815 36.1891 104.848 36.1437 104.878 36.1129L106.293 37.5271C106.612 37.2073 106.765 36.7974 106.765 36.37H104.765ZM104.878 36.1129C104.909 36.0821 104.955 36.0493 105.012 36.0265C105.067 36.0042 105.113 36 105.135 36V38C105.563 38 105.973 37.8469 106.293 37.5271L104.878 36.1129ZM105.135 36H103.185V38H105.135V36ZM103.185 36C103.208 36 103.254 36.0042 103.309 36.0265C103.366 36.0493 103.412 36.0821 103.443 36.1129L102.028 37.5271C102.348 37.8469 102.758 38 103.185 38V36ZM103.443 36.1129C103.473 36.1437 103.506 36.1891 103.529 36.2461C103.551 36.302 103.555 36.3473 103.555 36.37H101.555C101.555 36.7974 101.709 37.2073 102.028 37.5271L103.443 36.1129ZM103.555 36.37V14.65H101.555V36.37H103.555ZM103.555 14.65C103.555 14.6727 103.551 14.718 103.529 14.7739C103.506 14.8309 103.473 14.8763 103.443 14.9071L102.028 13.4929C101.709 13.8127 101.555 14.2226 101.555 14.65H103.555ZM103.443 14.9071C103.412 14.9379 103.366 14.9707 103.309 14.9935C103.254 15.0158 103.208 15.02 103.185 15.02V13.02C102.758 13.02 102.348 13.1731 102.028 13.4929L103.443 14.9071ZM103.185 15.02H105.525V13.02H103.185V15.02ZM105.525 15.02C105.503 15.02 105.457 15.0158 105.402 14.9935C105.345 14.9707 105.299 14.9379 105.268 14.9071L106.683 13.4929C106.363 13.1731 105.953 13.02 105.525 13.02V15.02ZM105.268 14.9071C105.238 14.8763 105.205 14.8309 105.182 14.7739C105.16 14.718 105.155 14.6727 105.155 14.65H107.155C107.155 14.2226 107.002 13.8127 106.683 13.4929L105.268 14.9071ZM105.155 14.65V21.34H107.155V14.65H105.155ZM106.934 21.9678C107.34 21.4642 107.817 21.0927 108.371 20.8395L107.54 19.0205C106.694 19.4073 105.971 19.9758 105.377 20.7122L106.934 21.9678ZM108.383 20.8342C108.976 20.5542 109.57 20.42 110.175 20.42V18.42C109.261 18.42 108.375 18.6258 107.528 19.0258L108.383 20.8342ZM110.175 20.42C111.21 20.42 112.145 20.6884 113.004 21.2271L114.067 19.5329C112.886 18.7916 111.581 18.42 110.175 18.42V20.42ZM113.016 21.2345C113.887 21.7639 114.578 22.478 115.095 23.3926L116.836 22.4074C116.153 21.202 115.224 20.2361 114.055 19.5255L113.016 21.2345ZM115.095 23.3926C115.61 24.3021 115.865 25.2724 115.865 26.32H117.865C117.865 24.9276 117.521 23.6179 116.836 22.4074L115.095 23.3926ZM115.865 26.32V30.49H117.865V26.32H115.865ZM115.865 30.49C115.865 31.5313 115.603 32.4972 115.072 33.4051L116.799 34.4149C117.508 33.2028 117.865 31.8887 117.865 30.49H115.865ZM115.065 33.4174C114.549 34.33 113.848 35.0566 112.951 35.6083L114 37.3117C115.183 36.5834 116.122 35.61 116.806 34.4026L115.065 33.4174ZM112.956 35.6055C112.091 36.1315 111.17 36.39 110.175 36.39V38.39C111.541 38.39 112.82 38.0285 113.995 37.3145L112.956 35.6055ZM109.725 34.94C110.965 34.94 112.051 34.4986 112.923 33.6271L111.508 32.2129C111.02 32.7014 110.446 32.94 109.725 32.94V34.94ZM112.923 33.6271C113.808 32.7417 114.265 31.6482 114.265 30.4H112.265C112.265 31.1118 112.023 31.6983 111.508 32.2129L112.923 33.6271ZM114.265 30.4V26.41H112.265V30.4H114.265ZM114.265 26.41C114.265 25.161 113.807 24.0719 112.912 23.2027L111.519 24.6373C112.024 25.1281 112.265 25.699 112.265 26.41H114.265ZM112.933 23.2232C112.064 22.3285 110.974 21.87 109.725 21.87V23.87C110.437 23.87 111.007 24.1115 111.498 24.6168L112.933 23.2232ZM109.725 21.87C108.477 21.87 107.384 22.3275 106.498 23.2129L107.913 24.6271C108.427 24.1125 109.014 23.87 109.725 23.87V21.87ZM106.509 23.2027C105.614 24.0719 105.155 25.161 105.155 26.41H107.155C107.155 25.699 107.397 25.1281 107.902 24.6373L106.509 23.2027ZM105.155 26.41V30.4H107.155V26.41H105.155ZM105.155 30.4C105.155 31.6482 105.613 32.7417 106.498 33.6271L107.913 32.2129C107.398 31.6983 107.155 31.1118 107.155 30.4H105.155ZM106.509 33.6373C107.396 34.4994 108.487 34.94 109.725 34.94V32.94C109.004 32.94 108.415 32.7006 107.902 32.2027L106.509 33.6373ZM123.207 35.56L122.5 36.2671L122.507 36.2744L123.207 35.56ZM121.767 23.17H122.767V22.17H121.767V23.17ZM119.247 22.99L118.54 23.6971L118.54 23.6971L119.247 22.99ZM121.767 19.81V20.81H122.767V19.81H121.767ZM121.947 16.12L122.654 16.8271L122.654 16.8271L121.947 16.12ZM125.367 19.81H124.367V20.81H125.367V19.81ZM125.367 23.2V22.2H124.367V23.2H125.367ZM125.877 33.07L125.15 33.7566L125.16 33.767L125.17 33.7771L125.877 33.07ZM127.287 33.61L127.296 32.61H127.287V33.61ZM130.437 33.64L130.427 34.64H130.437V33.64ZM130.887 33.82L131.594 33.1129L131.594 33.1129L130.887 33.82ZM127.017 36C125.68 36 124.674 35.597 123.907 34.8456L122.507 36.2744C123.7 37.443 125.234 38 127.017 38V36ZM123.914 34.8529C123.17 34.1087 122.767 33.1177 122.767 31.78H120.767C120.767 33.5623 121.324 35.0913 122.5 36.2671L123.914 34.8529ZM122.767 31.78V23.17H120.767V31.78H122.767ZM121.767 22.17H119.697V24.17H121.767V22.17ZM119.697 22.17C119.72 22.17 119.765 22.1742 119.821 22.1965C119.878 22.2193 119.923 22.2521 119.954 22.2829L118.54 23.6971C118.86 24.0169 119.27 24.17 119.697 24.17V22.17ZM119.954 22.2829C119.985 22.3137 120.018 22.3591 120.04 22.4161C120.063 22.472 120.067 22.5173 120.067 22.54H118.067C118.067 22.9674 118.22 23.3773 118.54 23.6971L119.954 22.2829ZM120.067 22.54V20.44H118.067V22.54H120.067ZM120.067 20.44C120.067 20.4627 120.063 20.508 120.04 20.5639C120.018 20.6209 119.985 20.6663 119.954 20.6971L118.54 19.2829C118.22 19.6027 118.067 20.0126 118.067 20.44H120.067ZM119.954 20.6971C119.923 20.7279 119.878 20.7607 119.821 20.7835C119.765 20.8058 119.72 20.81 119.697 20.81V18.81C119.27 18.81 118.86 18.9631 118.54 19.2829L119.954 20.6971ZM119.697 20.81H121.767V18.81H119.697V20.81ZM122.767 19.81V16.57H120.767V19.81H122.767ZM122.767 16.57C122.767 16.5927 122.763 16.638 122.74 16.6939C122.718 16.7509 122.685 16.7963 122.654 16.8271L121.24 15.4129C120.92 15.7327 120.767 16.1426 120.767 16.57H122.767ZM122.654 16.8271C122.623 16.8579 122.578 16.8907 122.521 16.9135C122.465 16.9358 122.42 16.94 122.397 16.94V14.94C121.97 14.94 121.56 15.0931 121.24 15.4129L122.654 16.8271ZM122.397 16.94H124.737V14.94H122.397V16.94ZM124.737 16.94C124.714 16.94 124.669 16.9358 124.613 16.9135C124.556 16.8907 124.511 16.8579 124.48 16.8271L125.894 15.4129C125.574 15.0931 125.164 14.94 124.737 14.94V16.94ZM124.48 16.8271C124.449 16.7963 124.416 16.7509 124.393 16.6939C124.371 16.638 124.367 16.5927 124.367 16.57H126.367C126.367 16.1426 126.214 15.7327 125.894 15.4129L124.48 16.8271ZM124.367 16.57V19.81H126.367V16.57H124.367ZM125.367 20.81H130.437V18.81H125.367V20.81ZM130.437 20.81C130.414 20.81 130.369 20.8058 130.313 20.7835C130.256 20.7607 130.211 20.7279 130.18 20.6971L131.594 19.2829C131.274 18.9631 130.864 18.81 130.437 18.81V20.81ZM130.18 20.6971C130.149 20.6663 130.116 20.6209 130.093 20.5639C130.071 20.508 130.067 20.4627 130.067 20.44H132.067C132.067 20.0126 131.914 19.6027 131.594 19.2829L130.18 20.6971ZM130.067 20.44V22.57H132.067V20.44H130.067ZM130.067 22.57C130.067 22.5473 130.071 22.502 130.093 22.4461C130.116 22.3891 130.149 22.3437 130.18 22.3129L131.594 23.7271C131.914 23.4073 132.067 22.9974 132.067 22.57H130.067ZM130.18 22.3129C130.211 22.2821 130.256 22.2493 130.313 22.2265C130.369 22.2042 130.414 22.2 130.437 22.2V24.2C130.864 24.2 131.274 24.0469 131.594 23.7271L130.18 22.3129ZM130.437 22.2H125.367V24.2H130.437V22.2ZM124.367 23.2V31.63H126.367V23.2H124.367ZM124.367 31.63C124.367 32.4282 124.599 33.1732 125.15 33.7566L126.604 32.3834C126.475 32.2468 126.367 32.0318 126.367 31.63H124.367ZM125.17 33.7771C125.744 34.3512 126.482 34.61 127.287 34.61V32.61C126.932 32.61 126.73 32.5088 126.584 32.3629L125.17 33.7771ZM127.277 34.61L130.427 34.64L130.446 32.64L127.296 32.61L127.277 34.61ZM130.437 34.64C130.414 34.64 130.369 34.6358 130.313 34.6135C130.256 34.5907 130.211 34.5579 130.18 34.5271L131.594 33.1129C131.274 32.7931 130.864 32.64 130.437 32.64V34.64ZM130.18 34.5271C130.149 34.4963 130.116 34.4509 130.093 34.3939C130.071 34.338 130.067 34.2927 130.067 34.27H132.067C132.067 33.8426 131.914 33.4327 131.594 33.1129L130.18 34.5271ZM130.067 34.27V36.37H132.067V34.27H130.067ZM130.067 36.37C130.067 36.3473 130.071 36.302 130.093 36.2461C130.116 36.1891 130.149 36.1437 130.18 36.1129L131.594 37.5271C131.914 37.2073 132.067 36.7974 132.067 36.37H130.067ZM130.18 36.1129C130.211 36.0821 130.256 36.0493 130.313 36.0265C130.369 36.0042 130.414 36 130.437 36V38C130.864 38 131.274 37.8469 131.594 37.5271L130.18 36.1129ZM130.437 36H127.017V38H130.437V36ZM137.281 36.58L136.766 37.4375L136.774 37.4424L137.281 36.58ZM135.151 34.33L136.03 33.8537L136.03 33.8537L135.151 34.33ZM134.551 19.99L135.258 20.6971L135.258 20.6971L134.551 19.99ZM138.781 33.1L138.049 33.7814L138.055 33.7878L138.061 33.7941L138.781 33.1ZM143.851 32.8L143.106 32.1321L143.105 32.1332L143.851 32.8ZM145.081 19.99L144.374 19.2829L144.374 19.2829L145.081 19.99ZM148.321 19.99L147.614 20.6971L148.321 19.99ZM148.321 36.82L147.614 36.1129L148.321 36.82ZM145.081 36.82L144.374 37.5271L144.374 37.5271L145.081 36.82ZM144.901 34.96H145.901V31.9171L144.096 34.3668L144.901 34.96ZM142.891 36.76L143.374 37.6353L143.382 37.631L142.891 36.76ZM140.371 36.39C139.396 36.39 138.543 36.1613 137.787 35.7176L136.774 37.4424C137.858 38.0787 139.065 38.39 140.371 38.39V36.39ZM137.795 35.7225C137.055 35.2784 136.468 34.6629 136.03 33.8537L134.271 34.8063C134.873 35.9171 135.706 36.8016 136.766 37.4375L137.795 35.7225ZM136.03 33.8537C135.597 33.0541 135.371 32.1405 135.371 31.09H133.371C133.371 32.4395 133.664 33.6859 134.271 34.8063L136.03 33.8537ZM135.371 31.09V20.44H133.371V31.09H135.371ZM135.371 20.44C135.371 20.4627 135.366 20.508 135.344 20.5639C135.321 20.6209 135.289 20.6663 135.258 20.6971L133.844 19.2829C133.524 19.6027 133.371 20.0126 133.371 20.44H135.371ZM135.258 20.6971C135.227 20.7279 135.182 20.7607 135.125 20.7835C135.069 20.8058 135.023 20.81 135.001 20.81V18.81C134.573 18.81 134.163 18.9631 133.844 19.2829L135.258 20.6971ZM135.001 20.81H137.341V18.81H135.001V20.81ZM137.341 20.81C137.318 20.81 137.273 20.8058 137.217 20.7835C137.16 20.7607 137.114 20.7279 137.084 20.6971L138.498 19.2829C138.178 18.9631 137.768 18.81 137.341 18.81V20.81ZM137.084 20.6971C137.053 20.6663 137.02 20.6209 136.997 20.5639C136.975 20.508 136.971 20.4627 136.971 20.44H138.971C138.971 20.0126 138.818 19.6027 138.498 19.2829L137.084 20.6971ZM136.971 20.44V30.64H138.971V20.44H136.971ZM136.971 30.64C136.971 31.8657 137.285 32.9611 138.049 33.7814L139.513 32.4186C139.196 32.0789 138.971 31.5343 138.971 30.64H136.971ZM138.061 33.7941C138.835 34.5975 139.884 34.94 141.061 34.94V32.94C140.277 32.94 139.806 32.7225 139.5 32.4059L138.061 33.7941ZM141.061 34.94C142.476 34.94 143.696 34.4729 144.596 33.4668L143.105 32.1332C142.646 32.6471 142.005 32.94 141.061 32.94V34.94ZM144.595 33.4679C145.501 32.4578 145.901 31.1357 145.901 29.62H143.901C143.901 30.7843 143.6 31.5822 143.106 32.1321L144.595 33.4679ZM145.901 29.62V20.44H143.901V29.62H145.901ZM145.901 20.44C145.901 20.4627 145.896 20.508 145.874 20.5639C145.851 20.6209 145.819 20.6663 145.788 20.6971L144.374 19.2829C144.054 19.6027 143.901 20.0126 143.901 20.44H145.901ZM145.788 20.6971C145.757 20.7279 145.712 20.7607 145.655 20.7835C145.599 20.8058 145.553 20.81 145.531 20.81V18.81C145.103 18.81 144.693 18.9631 144.374 19.2829L145.788 20.6971ZM145.531 20.81H147.871V18.81H145.531V20.81ZM147.871 20.81C147.848 20.81 147.803 20.8058 147.747 20.7835C147.69 20.7607 147.644 20.7279 147.614 20.6971L149.028 19.2829C148.708 18.9631 148.298 18.81 147.871 18.81V20.81ZM147.614 20.6971C147.583 20.6663 147.55 20.6209 147.527 20.5639C147.505 20.508 147.501 20.4627 147.501 20.44H149.501C149.501 20.0126 149.348 19.6027 149.028 19.2829L147.614 20.6971ZM147.501 20.44V36.37H149.501V20.44H147.501ZM147.501 36.37C147.501 36.3473 147.505 36.302 147.527 36.2461C147.55 36.1891 147.583 36.1437 147.614 36.1129L149.028 37.5271C149.348 37.2073 149.501 36.7974 149.501 36.37H147.501ZM147.614 36.1129C147.644 36.0821 147.69 36.0493 147.747 36.0265C147.803 36.0042 147.848 36 147.871 36V38C148.298 38 148.708 37.8469 149.028 37.5271L147.614 36.1129ZM147.871 36H145.531V38H147.871V36ZM145.531 36C145.553 36 145.599 36.0042 145.655 36.0265C145.712 36.0493 145.757 36.0821 145.788 36.1129L144.374 37.5271C144.693 37.8469 145.103 38 145.531 38V36ZM145.788 36.1129C145.819 36.1437 145.851 36.1891 145.874 36.2461C145.896 36.302 145.901 36.3473 145.901 36.37H143.901C143.901 36.7974 144.054 37.2073 144.374 37.5271L145.788 36.1129ZM145.901 36.37V34.96H143.901V36.37H145.901ZM144.096 34.3668C143.615 35.0194 143.05 35.5222 142.399 35.889L143.382 37.631C144.292 37.1178 145.067 36.4206 145.706 35.5532L144.096 34.3668ZM142.407 35.8848C141.804 36.218 141.132 36.39 140.371 36.39V38.39C141.449 38.39 142.457 38.142 143.374 37.6352L142.407 35.8848ZM155.792 35.56L155.085 36.2671L155.092 36.2744L155.792 35.56ZM154.352 23.17H155.352V22.17H154.352V23.17ZM151.832 22.99L151.125 23.6971L151.125 23.6971L151.832 22.99ZM154.352 19.81V20.81H155.352V19.81H154.352ZM154.532 16.12L155.239 16.8271L155.239 16.8271L154.532 16.12ZM157.952 19.81H156.952V20.81H157.952V19.81ZM157.952 23.2V22.2H156.952V23.2H157.952ZM158.462 33.07L157.735 33.7566L157.745 33.767L157.755 33.7771L158.462 33.07ZM159.872 33.61L159.882 32.61H159.872V33.61ZM163.022 33.64L163.013 34.64H163.022V33.64ZM163.472 33.82L164.179 33.1129L164.179 33.1129L163.472 33.82ZM159.602 36C158.265 36 157.259 35.597 156.492 34.8456L155.092 36.2744C156.285 37.443 157.819 38 159.602 38V36ZM156.499 34.8529C155.755 34.1087 155.352 33.1177 155.352 31.78H153.352C153.352 33.5623 153.909 35.0913 155.085 36.2671L156.499 34.8529ZM155.352 31.78V23.17H153.352V31.78H155.352ZM154.352 22.17H152.282V24.17H154.352V22.17ZM152.282 22.17C152.305 22.17 152.35 22.1742 152.406 22.1965C152.463 22.2193 152.508 22.2521 152.539 22.2829L151.125 23.6971C151.445 24.0169 151.855 24.17 152.282 24.17V22.17ZM152.539 22.2829C152.57 22.3137 152.603 22.3591 152.626 22.4161C152.648 22.472 152.652 22.5173 152.652 22.54H150.652C150.652 22.9674 150.805 23.3773 151.125 23.6971L152.539 22.2829ZM152.652 22.54V20.44H150.652V22.54H152.652ZM152.652 20.44C152.652 20.4627 152.648 20.508 152.626 20.5639C152.603 20.6209 152.57 20.6663 152.539 20.6971L151.125 19.2829C150.805 19.6027 150.652 20.0126 150.652 20.44H152.652ZM152.539 20.6971C152.508 20.7279 152.463 20.7607 152.406 20.7835C152.35 20.8058 152.305 20.81 152.282 20.81V18.81C151.855 18.81 151.445 18.9631 151.125 19.2829L152.539 20.6971ZM152.282 20.81H154.352V18.81H152.282V20.81ZM155.352 19.81V16.57H153.352V19.81H155.352ZM155.352 16.57C155.352 16.5927 155.348 16.638 155.326 16.6939C155.303 16.7509 155.27 16.7963 155.239 16.8271L153.825 15.4129C153.505 15.7327 153.352 16.1426 153.352 16.57H155.352ZM155.239 16.8271C155.208 16.8579 155.163 16.8907 155.106 16.9135C155.05 16.9358 155.005 16.94 154.982 16.94V14.94C154.555 14.94 154.145 15.0931 153.825 15.4129L155.239 16.8271ZM154.982 16.94H157.322V14.94H154.982V16.94ZM157.322 16.94C157.299 16.94 157.254 16.9358 157.198 16.9135C157.141 16.8907 157.096 16.8579 157.065 16.8271L158.479 15.4129C158.16 15.0931 157.75 14.94 157.322 14.94V16.94ZM157.065 16.8271C157.034 16.7963 157.002 16.7509 156.979 16.6939C156.956 16.638 156.952 16.5927 156.952 16.57H158.952C158.952 16.1426 158.799 15.7327 158.479 15.4129L157.065 16.8271ZM156.952 16.57V19.81H158.952V16.57H156.952ZM157.952 20.81H163.022V18.81H157.952V20.81ZM163.022 20.81C162.999 20.81 162.954 20.8058 162.898 20.7835C162.841 20.7607 162.796 20.7279 162.765 20.6971L164.179 19.2829C163.86 18.9631 163.45 18.81 163.022 18.81V20.81ZM162.765 20.6971C162.734 20.6663 162.702 20.6209 162.679 20.5639C162.656 20.508 162.652 20.4627 162.652 20.44H164.652C164.652 20.0126 164.499 19.6027 164.179 19.2829L162.765 20.6971ZM162.652 20.44V22.57H164.652V20.44H162.652ZM162.652 22.57C162.652 22.5473 162.656 22.502 162.679 22.4461C162.702 22.3891 162.734 22.3437 162.765 22.3129L164.179 23.7271C164.499 23.4073 164.652 22.9974 164.652 22.57H162.652ZM162.765 22.3129C162.796 22.2821 162.841 22.2493 162.898 22.2265C162.954 22.2042 162.999 22.2 163.022 22.2V24.2C163.45 24.2 163.86 24.0469 164.179 23.7271L162.765 22.3129ZM163.022 22.2H157.952V24.2H163.022V22.2ZM156.952 23.2V31.63H158.952V23.2H156.952ZM156.952 31.63C156.952 32.4282 157.184 33.1732 157.735 33.7566L159.189 32.3834C159.06 32.2468 158.952 32.0318 158.952 31.63H156.952ZM157.755 33.7771C158.329 34.3512 159.067 34.61 159.872 34.61V32.61C159.517 32.61 159.315 32.5088 159.169 32.3629L157.755 33.7771ZM159.863 34.61L163.013 34.64L163.032 32.64L159.882 32.61L159.863 34.61ZM163.022 34.64C162.999 34.64 162.954 34.6358 162.898 34.6135C162.841 34.5907 162.796 34.5579 162.765 34.5271L164.179 33.1129C163.86 32.7931 163.45 32.64 163.022 32.64V34.64ZM162.765 34.5271C162.734 34.4963 162.702 34.4509 162.679 34.3939C162.656 34.338 162.652 34.2927 162.652 34.27H164.652C164.652 33.8426 164.499 33.4327 164.179 33.1129L162.765 34.5271ZM162.652 34.27V36.37H164.652V34.27H162.652ZM162.652 36.37C162.652 36.3473 162.656 36.302 162.679 36.2461C162.702 36.1891 162.734 36.1437 162.765 36.1129L164.179 37.5271C164.499 37.2073 164.652 36.7974 164.652 36.37H162.652ZM162.765 36.1129C162.796 36.0821 162.841 36.0493 162.898 36.0265C162.954 36.0042 162.999 36 163.022 36V38C163.45 38 163.86 37.8469 164.179 37.5271L162.765 36.1129ZM163.022 36H159.602V38H163.022V36ZM167.842 37L167.135 37.7071L167.142 37.7143L167.149 37.7214L167.842 37ZM167.842 33.46L167.149 32.7386L167.142 32.7457L167.135 32.7529L167.842 33.46ZM171.382 33.49L170.66 34.1825L170.668 34.1899L170.675 34.1971L171.382 33.49ZM171.382 37L172.089 37.7071L172.096 37.6999L172.103 37.6925L171.382 37ZM169.642 36.72C169.197 36.72 168.846 36.5779 168.534 36.2786L167.149 37.7214C167.838 38.3821 168.687 38.72 169.642 38.72V36.72ZM168.549 36.2929C168.263 36.0069 168.122 35.674 168.122 35.23H166.122C166.122 36.186 166.461 37.0331 167.135 37.7071L168.549 36.2929ZM168.122 35.23C168.122 34.786 168.263 34.4531 168.549 34.1671L167.135 32.7529C166.461 33.4269 166.122 34.274 166.122 35.23H168.122ZM168.534 34.1814C168.846 33.8821 169.197 33.74 169.642 33.74V31.74C168.687 31.74 167.838 32.0779 167.149 32.7386L168.534 34.1814ZM169.642 33.74C170.044 33.74 170.365 33.8747 170.66 34.1825L172.103 32.7975C171.439 32.1053 170.6 31.74 169.642 31.74V33.74ZM170.675 34.1971C170.967 34.4892 171.102 34.8147 171.102 35.23H173.102C173.102 34.2853 172.757 33.4508 172.089 32.7829L170.675 34.1971ZM171.102 35.23C171.102 35.6464 170.966 35.9897 170.66 36.3075L172.103 37.6925C172.758 37.0103 173.102 36.1736 173.102 35.23H171.102ZM170.675 36.2929C170.383 36.585 170.057 36.72 169.642 36.72V38.72C170.587 38.72 171.421 38.375 172.089 37.7071L170.675 36.2929ZM178.592 35.56L177.885 36.2671L177.893 36.2744L178.592 35.56ZM177.152 23.17H178.152V22.17H177.152V23.17ZM174.632 22.99L173.925 23.6971L173.925 23.6971L174.632 22.99ZM177.152 19.81V20.81H178.152V19.81H177.152ZM177.332 16.12L178.039 16.8271L178.039 16.8271L177.332 16.12ZM180.752 19.81H179.752V20.81H180.752V19.81ZM180.752 23.2V22.2H179.752V23.2H180.752ZM181.262 33.07L180.535 33.7566L180.545 33.767L180.555 33.7771L181.262 33.07ZM182.672 33.61L182.682 32.61H182.672V33.61ZM185.822 33.64L185.813 34.64H185.822V33.64ZM186.272 33.82L186.979 33.1129L186.979 33.1129L186.272 33.82ZM182.402 36C181.065 36 180.059 35.597 179.292 34.8456L177.893 36.2744C179.086 37.443 180.62 38 182.402 38V36ZM179.299 34.8529C178.555 34.1087 178.152 33.1177 178.152 31.78H176.152C176.152 33.5623 176.709 35.0913 177.885 36.2671L179.299 34.8529ZM178.152 31.78V23.17H176.152V31.78H178.152ZM177.152 22.17H175.082V24.17H177.152V22.17ZM175.082 22.17C175.105 22.17 175.15 22.1742 175.206 22.1965C175.263 22.2193 175.309 22.2521 175.339 22.2829L173.925 23.6971C174.245 24.0169 174.655 24.17 175.082 24.17V22.17ZM175.339 22.2829C175.37 22.3137 175.403 22.3591 175.426 22.4161C175.448 22.472 175.452 22.5173 175.452 22.54H173.452C173.452 22.9674 173.605 23.3773 173.925 23.6971L175.339 22.2829ZM175.452 22.54V20.44H173.452V22.54H175.452ZM175.452 20.44C175.452 20.4627 175.448 20.508 175.426 20.5639C175.403 20.6209 175.37 20.6663 175.339 20.6971L173.925 19.2829C173.605 19.6027 173.452 20.0126 173.452 20.44H175.452ZM175.339 20.6971C175.309 20.7279 175.263 20.7607 175.206 20.7835C175.15 20.8058 175.105 20.81 175.082 20.81V18.81C174.655 18.81 174.245 18.9631 173.925 19.2829L175.339 20.6971ZM175.082 20.81H177.152V18.81H175.082V20.81ZM178.152 19.81V16.57H176.152V19.81H178.152ZM178.152 16.57C178.152 16.5927 178.148 16.638 178.126 16.6939C178.103 16.7509 178.07 16.7963 178.039 16.8271L176.625 15.4129C176.305 15.7327 176.152 16.1426 176.152 16.57H178.152ZM178.039 16.8271C178.009 16.8579 177.963 16.8907 177.906 16.9135C177.85 16.9358 177.805 16.94 177.782 16.94V14.94C177.355 14.94 176.945 15.0931 176.625 15.4129L178.039 16.8271ZM177.782 16.94H180.122V14.94H177.782V16.94ZM180.122 16.94C180.1 16.94 180.054 16.9358 179.998 16.9135C179.941 16.8907 179.896 16.8579 179.865 16.8271L181.279 15.4129C180.96 15.0931 180.55 14.94 180.122 14.94V16.94ZM179.865 16.8271C179.834 16.7963 179.802 16.7509 179.779 16.6939C179.757 16.638 179.752 16.5927 179.752 16.57H181.752C181.752 16.1426 181.599 15.7327 181.279 15.4129L179.865 16.8271ZM179.752 16.57V19.81H181.752V16.57H179.752ZM180.752 20.81H185.822V18.81H180.752V20.81ZM185.822 20.81C185.8 20.81 185.754 20.8058 185.698 20.7835C185.641 20.7607 185.596 20.7279 185.565 20.6971L186.979 19.2829C186.66 18.9631 186.25 18.81 185.822 18.81V20.81ZM185.565 20.6971C185.534 20.6663 185.502 20.6209 185.479 20.5639C185.457 20.508 185.452 20.4627 185.452 20.44H187.452C187.452 20.0126 187.299 19.6027 186.979 19.2829L185.565 20.6971ZM185.452 20.44V22.57H187.452V20.44H185.452ZM185.452 22.57C185.452 22.5473 185.457 22.502 185.479 22.4461C185.502 22.3891 185.534 22.3437 185.565 22.3129L186.979 23.7271C187.299 23.4073 187.452 22.9974 187.452 22.57H185.452ZM185.565 22.3129C185.596 22.2821 185.641 22.2493 185.698 22.2265C185.754 22.2042 185.8 22.2 185.822 22.2V24.2C186.25 24.2 186.66 24.0469 186.979 23.7271L185.565 22.3129ZM185.822 22.2H180.752V24.2H185.822V22.2ZM179.752 23.2V31.63H181.752V23.2H179.752ZM179.752 31.63C179.752 32.4282 179.984 33.1732 180.535 33.7566L181.989 32.3834C181.86 32.2468 181.752 32.0318 181.752 31.63H179.752ZM180.555 33.7771C181.129 34.3512 181.867 34.61 182.672 34.61V32.61C182.317 32.61 182.115 32.5088 181.969 32.3629L180.555 33.7771ZM182.663 34.61L185.813 34.64L185.832 32.64L182.682 32.61L182.663 34.61ZM185.822 34.64C185.8 34.64 185.754 34.6358 185.698 34.6135C185.641 34.5907 185.596 34.5579 185.565 34.5271L186.979 33.1129C186.66 32.7931 186.25 32.64 185.822 32.64V34.64ZM185.565 34.5271C185.534 34.4963 185.502 34.4509 185.479 34.3939C185.457 34.338 185.452 34.2927 185.452 34.27H187.452C187.452 33.8426 187.299 33.4327 186.979 33.1129L185.565 34.5271ZM185.452 34.27V36.37H187.452V34.27H185.452ZM185.452 36.37C185.452 36.3473 185.457 36.302 185.479 36.2461C185.502 36.1891 185.534 36.1437 185.565 36.1129L186.979 37.5271C187.299 37.2073 187.452 36.7974 187.452 36.37H185.452ZM185.565 36.1129C185.596 36.0821 185.641 36.0493 185.698 36.0265C185.754 36.0042 185.8 36 185.822 36V38C186.25 38 186.66 37.8469 186.979 37.5271L185.565 36.1129ZM185.822 36H182.402V38H185.822V36ZM189.43 36.82L190.137 36.1129L190.137 36.1129L189.43 36.82ZM189.43 33.7L188.722 32.9929L188.722 32.9929L189.43 33.7ZM192.16 33.52V34.52H193.16V33.52H192.16ZM192.16 23.2H193.16V22.2H192.16V23.2ZM189.13 23.02L188.422 23.7271L188.422 23.7271L189.13 23.02ZM189.13 19.99L188.422 19.2829L188.422 19.2829L189.13 19.99ZM195.13 20.2L194.395 20.8783L194.422 20.9077L194.451 20.9348L195.13 20.2ZM195.52 22.18H194.52V24.2546L196.142 22.9623L195.52 22.18ZM197.14 20.89L197.762 21.6723L197.764 21.6709L197.14 20.89ZM198.7 19.9L199.078 20.8255L199.096 20.8183L199.113 20.8104L198.7 19.9ZM201.64 19.78L200.932 20.4871L200.932 20.4871L201.64 19.78ZM197.32 24.64L196.697 23.8572L196.695 23.8591L197.32 24.64ZM195.67 25.96L195.045 25.1791L194.67 25.4794V25.96H195.67ZM195.67 33.52H194.67V34.52H195.67V33.52ZM199.09 33.7L199.797 32.9929L199.797 32.9929L199.09 33.7ZM199.09 36.82L199.797 37.5271L199.797 37.5271L199.09 36.82ZM189.88 36C189.902 36 189.948 36.0042 190.003 36.0265C190.06 36.0493 190.106 36.0821 190.137 36.1129L188.722 37.5271C189.042 37.8469 189.452 38 189.88 38V36ZM190.137 36.1129C190.168 36.1437 190.2 36.1891 190.223 36.2461C190.245 36.302 190.25 36.3473 190.25 36.37H188.25C188.25 36.7974 188.403 37.2073 188.722 37.5271L190.137 36.1129ZM190.25 36.37V34.15H188.25V36.37H190.25ZM190.25 34.15C190.25 34.1727 190.245 34.218 190.223 34.2739C190.2 34.3309 190.168 34.3763 190.137 34.4071L188.722 32.9929C188.403 33.3127 188.25 33.7226 188.25 34.15H190.25ZM190.137 34.4071C190.106 34.4379 190.06 34.4707 190.003 34.4935C189.948 34.5158 189.902 34.52 189.88 34.52V32.52C189.452 32.52 189.042 32.6731 188.722 32.9929L190.137 34.4071ZM189.88 34.52H192.16V32.52H189.88V34.52ZM193.16 33.52V23.2H191.16V33.52H193.16ZM192.16 22.2H189.58V24.2H192.16V22.2ZM189.58 22.2C189.602 22.2 189.648 22.2042 189.703 22.2265C189.76 22.2493 189.806 22.2821 189.837 22.3129L188.422 23.7271C188.742 24.0469 189.152 24.2 189.58 24.2V22.2ZM189.837 22.3129C189.868 22.3437 189.9 22.3891 189.923 22.4461C189.945 22.502 189.95 22.5473 189.95 22.57H187.95C187.95 22.9974 188.103 23.4073 188.422 23.7271L189.837 22.3129ZM189.95 22.57V20.44H187.95V22.57H189.95ZM189.95 20.44C189.95 20.4627 189.945 20.508 189.923 20.5639C189.9 20.6209 189.868 20.6663 189.837 20.6971L188.422 19.2829C188.103 19.6027 187.95 20.0126 187.95 20.44H189.95ZM189.837 20.6971C189.806 20.7279 189.76 20.7607 189.703 20.7835C189.648 20.8058 189.602 20.81 189.58 20.81V18.81C189.152 18.81 188.742 18.9631 188.422 19.2829L189.837 20.6971ZM189.58 20.81H194.23V18.81H189.58V20.81ZM194.23 20.81C194.316 20.81 194.348 20.8274 194.395 20.8783L195.864 19.5217C195.431 19.0526 194.863 18.81 194.23 18.81V20.81ZM194.451 20.9348C194.502 20.9818 194.52 21.0136 194.52 21.1H196.52C196.52 20.4664 196.277 19.8982 195.808 19.4652L194.451 20.9348ZM194.52 21.1V22.18H196.52V21.1H194.52ZM196.142 22.9623L197.762 21.6723L196.517 20.1077L194.897 21.3977L196.142 22.9623ZM197.764 21.6709C198.329 21.2187 198.764 20.9541 199.078 20.8255L198.321 18.9745C197.755 19.2059 197.15 19.6013 196.515 20.1091L197.764 21.6709ZM199.113 20.8104C199.396 20.6819 199.769 20.6 200.26 20.6V18.6C199.55 18.6 198.883 18.7181 198.286 18.9896L199.113 20.8104ZM200.26 20.6H201.19V18.6H200.26V20.6ZM201.19 20.6C201.167 20.6 201.122 20.5958 201.066 20.5735C201.009 20.5507 200.963 20.5179 200.932 20.4871L202.347 19.0729C202.027 18.7531 201.617 18.6 201.19 18.6V20.6ZM200.932 20.4871C200.902 20.4563 200.869 20.4109 200.846 20.3539C200.824 20.298 200.82 20.2527 200.82 20.23H202.82C202.82 19.8026 202.666 19.3927 202.347 19.0729L200.932 20.4871ZM200.82 20.23V22.54H202.82V20.23H200.82ZM200.82 22.54C200.82 22.5173 200.824 22.472 200.846 22.4161C200.869 22.3591 200.902 22.3137 200.932 22.2829L202.347 23.6971C202.666 23.3773 202.82 22.9674 202.82 22.54H200.82ZM200.932 22.2829C200.963 22.2521 201.009 22.2193 201.066 22.1965C201.122 22.1742 201.167 22.17 201.19 22.17V24.17C201.617 24.17 202.027 24.0169 202.347 23.6971L200.932 22.2829ZM201.19 22.17H200.41V24.17H201.19V22.17ZM200.41 22.17C199.776 22.17 199.173 22.2797 198.631 22.5363L199.488 24.3437C199.706 24.2403 200.003 24.17 200.41 24.17V22.17ZM198.631 22.5363C198.137 22.7704 197.478 23.2365 196.697 23.8572L197.942 25.4228C198.721 24.8035 199.222 24.4696 199.488 24.3437L198.631 22.5363ZM196.695 23.8591L195.045 25.1791L196.294 26.7409L197.944 25.4209L196.695 23.8591ZM194.67 25.96V33.52H196.67V25.96H194.67ZM195.67 34.52H198.64V32.52H195.67V34.52ZM198.64 34.52C198.617 34.52 198.572 34.5158 198.516 34.4935C198.459 34.4707 198.413 34.4379 198.382 34.4071L199.797 32.9929C199.477 32.6731 199.067 32.52 198.64 32.52V34.52ZM198.382 34.4071C198.352 34.3763 198.319 34.3309 198.296 34.2739C198.274 34.218 198.27 34.1727 198.27 34.15H200.27C200.27 33.7226 200.116 33.3127 199.797 32.9929L198.382 34.4071ZM198.27 34.15V36.37H200.27V34.15H198.27ZM198.27 36.37C198.27 36.3473 198.274 36.302 198.296 36.2461C198.319 36.1891 198.352 36.1437 198.382 36.1129L199.797 37.5271C200.116 37.2073 200.27 36.7974 200.27 36.37H198.27ZM198.382 36.1129C198.413 36.0821 198.459 36.0493 198.516 36.0265C198.572 36.0042 198.617 36 198.64 36V38C199.067 38 199.477 37.8469 199.797 37.5271L198.382 36.1129ZM198.64 36H189.88V38H198.64V36ZM204.91 35.98L204.231 36.7148L204.239 36.7216L204.246 36.7282L204.91 35.98ZM204.79 28.84L205.474 29.5696L205.482 29.562L204.79 28.84ZM208.84 27.04L208.749 26.0441L208.715 26.0472L208.681 26.0527L208.84 27.04ZM210.1 26.86L209.986 25.8665L209.945 25.8712L209.904 25.8794L210.1 26.86ZM212.65 26.5L212.49 25.5129L212.44 25.5209L212.392 25.5338L212.65 26.5ZM212.83 23.47L212.221 24.2636L212.236 24.2748L212.251 24.2855L212.83 23.47ZM207.01 24.55L206.163 24.0187L206.158 24.0259L207.01 24.55ZM206.05 24.82L206.674 24.0391L206.644 24.0146L206.611 23.9925L206.05 24.82ZM204.37 23.68L204.931 22.8525L204.924 22.8479L204.37 23.68ZM204.16 22.9L203.275 22.4336L203.237 22.5061L203.211 22.5838L204.16 22.9ZM206.74 20.35L207.206 21.235L207.218 21.2285L206.74 20.35ZM214.09 20.17L214.537 19.2756L214.537 19.2756L214.09 20.17ZM216.4 22.3L215.537 22.8062L215.541 22.8131L215.546 22.8199L216.4 22.3ZM217.06 36.82L216.353 36.1129L216.353 36.1129L217.06 36.82ZM214.12 36.85L213.413 37.5571L213.445 37.5892L213.48 37.6182L214.12 36.85ZM213.94 35.2H214.94V32.6862L213.213 34.5131L213.94 35.2ZM211.51 33.58L211.014 32.7118L211.014 32.7118L211.51 33.58ZM213.19 32.02L212.358 31.4653L212.354 31.4713L213.19 32.02ZM213.85 29.35H214.85V28.1926L213.705 28.3606L213.85 29.35ZM211.6 29.68L211.714 30.6735L211.729 30.6717L211.745 30.6694L211.6 29.68ZM209.23 30.01L209.41 30.9937L209.428 30.9903L209.447 30.9862L209.23 30.01ZM207.46 33.64L206.823 34.411L206.833 34.4194L206.843 34.4275L207.46 33.64ZM209.02 36.39C207.536 36.39 206.417 35.9804 205.573 35.2318L204.246 36.7282C205.522 37.8596 207.143 38.39 209.02 38.39V36.39ZM205.588 35.2452C204.77 34.4896 204.35 33.524 204.35 32.26H202.35C202.35 34.036 202.97 35.5504 204.231 36.7148L205.588 35.2452ZM204.35 32.26C204.35 31.1413 204.726 30.2704 205.474 29.5695L204.106 28.1105C202.933 29.2096 202.35 30.6187 202.35 32.26H204.35ZM205.482 29.562C206.254 28.8217 207.395 28.2854 208.999 28.0273L208.681 26.0527C206.805 26.3546 205.245 27.0183 204.098 28.118L205.482 29.562ZM208.93 28.0359C209.403 27.9929 209.858 27.9281 210.296 27.8406L209.904 25.8794C209.541 25.9519 209.157 26.0071 208.749 26.0441L208.93 28.0359ZM210.213 27.8535C211.58 27.6974 212.519 27.5699 212.907 27.4662L212.392 25.5338C212.181 25.5901 211.42 25.7026 209.986 25.8665L210.213 27.8535ZM212.81 27.4871C213.331 27.4027 213.849 27.1909 214.233 26.756C214.62 26.316 214.76 25.7718 214.76 25.24H212.76C212.76 25.4282 212.714 25.454 212.732 25.434C212.745 25.4191 212.709 25.4773 212.49 25.5129L212.81 27.4871ZM214.76 25.24C214.76 24.1656 214.284 23.2759 213.408 22.6545L212.251 24.2855C212.615 24.5441 212.76 24.8344 212.76 25.24H214.76ZM213.438 22.6764C212.628 22.0555 211.641 21.78 210.55 21.78V23.78C211.299 23.78 211.831 23.9645 212.221 24.2636L213.438 22.6764ZM210.55 21.78C208.651 21.78 207.118 22.4953 206.163 24.0187L207.857 25.0813C208.382 24.2447 209.208 23.78 210.55 23.78V21.78ZM206.158 24.0259C206.129 24.0735 206.131 24.0527 206.183 24.0172C206.21 23.9983 206.249 23.9777 206.297 23.9624C206.346 23.9469 206.395 23.94 206.44 23.94V25.94C207.134 25.94 207.598 25.5028 207.861 25.0741L206.158 24.0259ZM206.44 23.94C206.442 23.94 206.471 23.9403 206.516 23.9542C206.564 23.9689 206.62 23.9958 206.674 24.0391L205.425 25.6009C205.743 25.8551 206.111 25.94 206.44 25.94V23.94ZM206.611 23.9925L204.931 22.8525L203.808 24.5075L205.488 25.6475L206.611 23.9925ZM204.924 22.8479C204.955 22.8684 205.009 22.9152 205.051 22.9946C205.093 23.0733 205.1 23.1405 205.1 23.17H203.1C203.1 23.7175 203.351 24.2028 203.815 24.512L204.924 22.8479ZM205.1 23.17C205.1 23.2088 205.097 23.2372 205.095 23.2515C205.094 23.2594 205.093 23.2652 205.092 23.2687C205.091 23.2723 205.091 23.2743 205.091 23.2744C205.091 23.2745 205.092 23.2696 205.095 23.2591C205.098 23.2487 205.102 23.2346 205.108 23.2162L203.211 22.5838C203.166 22.7185 203.1 22.9384 203.1 23.17H205.1ZM205.044 23.3664C205.527 22.4517 206.237 21.7445 207.205 21.2349L206.274 19.4651C204.962 20.1555 203.953 21.1483 203.275 22.4336L205.044 23.3664ZM207.218 21.2285C208.195 20.6967 209.318 20.42 210.61 20.42V18.42C209.021 18.42 207.564 18.7633 206.262 19.4715L207.218 21.2285ZM210.61 20.42C211.802 20.42 212.804 20.6453 213.643 21.0644L214.537 19.2756C213.375 18.6947 212.057 18.42 210.61 18.42V20.42ZM213.643 21.0644C214.478 21.4823 215.1 22.0613 215.537 22.8062L217.262 21.7938C216.619 20.6987 215.701 19.8577 214.537 19.2756L213.643 21.0644ZM215.546 22.8199C216 23.5659 216.24 24.4419 216.24 25.48H218.24C218.24 24.1181 217.92 22.8741 217.254 21.7801L215.546 22.8199ZM216.24 25.48V36.37H218.24V25.48H216.24ZM216.24 36.37C216.24 36.3473 216.244 36.302 216.266 36.2461C216.289 36.1891 216.322 36.1437 216.353 36.1129L217.767 37.5271C218.087 37.2073 218.24 36.7974 218.24 36.37H216.24ZM216.353 36.1129C216.383 36.0821 216.429 36.0493 216.486 36.0265C216.542 36.0042 216.587 36 216.61 36V38C217.037 38 217.447 37.8469 217.767 37.5271L216.353 36.1129ZM216.61 36H214.57V38H216.61V36ZM214.57 36C214.573 36 214.598 36.0005 214.638 36.0138C214.68 36.0278 214.723 36.051 214.76 36.0818L213.48 37.6182C213.806 37.8904 214.193 38 214.57 38V36ZM214.827 36.1429C214.869 36.1846 214.901 36.2362 214.921 36.2889C214.93 36.3133 214.935 36.3337 214.937 36.3481C214.939 36.3552 214.939 36.3607 214.939 36.3644C214.94 36.3663 214.94 36.3677 214.94 36.3686C214.94 36.3691 214.94 36.3694 214.94 36.3696C214.94 36.3698 214.94 36.3699 214.94 36.3699C214.94 36.3699 214.94 36.37 214.94 36.37C214.94 36.37 214.94 36.37 214.94 36.37C214.94 36.37 214.94 36.37 214.94 36.37H212.94C212.94 36.7843 213.072 37.2164 213.413 37.5571L214.827 36.1429ZM214.94 36.37V35.2H212.94V36.37H214.94ZM213.213 34.5131C212.01 35.7861 210.628 36.39 209.02 36.39V38.39C211.212 38.39 213.11 37.5339 214.666 35.8869L213.213 34.5131ZM209.29 35.18C210.25 35.18 211.16 34.9316 212.006 34.4482L211.014 32.7118C210.459 33.0284 209.89 33.18 209.29 33.18V35.18ZM212.006 34.4482C212.835 33.9743 213.515 33.3475 214.026 32.5687L212.354 31.4713C212.025 31.9725 211.584 32.3857 211.014 32.7118L212.006 34.4482ZM214.022 32.5747C214.56 31.7678 214.85 30.8873 214.85 29.95H212.85C212.85 30.4527 212.7 30.9522 212.358 31.4653L214.022 32.5747ZM214.85 29.95V29.35H212.85V29.95H214.85ZM213.705 28.3606L211.455 28.6906L211.745 30.6694L213.995 30.3394L213.705 28.3606ZM211.486 28.6865C210.278 28.8251 209.434 28.9403 209.013 29.0338L209.447 30.9862C209.746 30.9197 210.481 30.8149 211.714 30.6735L211.486 28.6865ZM209.05 29.0263C208.141 29.1926 207.329 29.4929 206.73 30.0115C206.093 30.5634 205.77 31.3006 205.77 32.14H207.77C207.77 31.8594 207.857 31.6816 208.039 31.5235C208.26 31.3321 208.679 31.1274 209.41 30.9937L209.05 29.0263ZM205.77 32.14C205.77 33.0448 206.123 33.8326 206.823 34.411L208.097 32.869C207.877 32.6874 207.77 32.4752 207.77 32.14H205.77ZM206.843 34.4275C207.526 34.9618 208.374 35.18 209.29 35.18V33.18C208.685 33.18 208.313 33.0382 208.076 32.8525L206.843 34.4275ZM224.322 36.43L223.812 37.2903L223.819 37.2943L224.322 36.43ZM221.742 33.82L220.878 34.3229L220.878 34.3229L221.742 33.82ZM221.742 22.99L222.607 23.4929L222.607 23.4929L221.742 22.99ZM224.322 20.38L223.819 19.5156L223.812 19.5197L224.322 20.38ZM230.802 20.05L230.387 20.9597L230.395 20.9635L230.404 20.9671L230.802 20.05ZM233.172 21.76L232.426 22.4256L232.445 22.4469L232.465 22.4671L233.172 21.76ZM230.832 24.07L231.58 23.4056L231.56 23.3837L231.539 23.3629L230.832 24.07ZM225.402 32.89L224.685 33.5868L224.695 33.5972L224.705 33.6073L225.402 32.89ZM230.832 32.74L231.539 33.4471L231.56 33.4263L231.58 33.4044L230.832 32.74ZM231.822 32.68L231.115 33.3871L231.115 33.3871L231.822 32.68ZM233.112 33.97L232.405 34.6771L232.405 34.6771L233.112 33.97ZM233.172 35.05L232.465 34.3429L232.445 34.3631L232.426 34.3844L233.172 35.05ZM230.802 36.79L231.201 37.7071L231.209 37.7035L231.218 37.6997L230.802 36.79ZM227.922 36.39C226.795 36.39 225.769 36.1148 224.825 35.5657L223.819 37.2943C225.075 38.0252 226.45 38.39 227.922 38.39V36.39ZM224.832 35.5697C223.901 35.0179 223.162 34.2718 222.607 33.3171L220.878 34.3229C221.602 35.5682 222.584 36.5621 223.812 37.2903L224.832 35.5697ZM222.607 33.3171C222.057 32.3732 221.782 31.3473 221.782 30.22H219.782C219.782 31.6927 220.147 33.0668 220.878 34.3229L222.607 33.3171ZM221.782 30.22V26.59H219.782V30.22H221.782ZM221.782 26.59C221.782 25.4627 222.057 24.4368 222.607 23.4929L220.878 22.4871C220.147 23.7432 219.782 25.1173 219.782 26.59H221.782ZM222.607 23.4929C223.162 22.5382 223.901 21.7921 224.832 21.2403L223.812 19.5197C222.584 20.2479 221.602 21.2418 220.878 22.4871L222.607 23.4929ZM224.825 21.2443C225.769 20.6952 226.795 20.42 227.922 20.42V18.42C226.45 18.42 225.075 18.7848 223.819 19.5157L224.825 21.2443ZM227.922 20.42C228.777 20.42 229.596 20.5985 230.387 20.9597L231.218 19.1403C230.169 18.6615 229.067 18.42 227.922 18.42V20.42ZM230.404 20.9671C231.192 21.3101 231.863 21.7949 232.426 22.4256L233.919 21.0944C233.161 20.2451 232.252 19.5899 231.201 19.1329L230.404 20.9671ZM232.465 22.4671C232.459 22.4606 232.435 22.4343 232.414 22.3858C232.392 22.3355 232.382 22.2836 232.382 22.24H234.382C234.382 21.767 234.186 21.3598 233.879 21.0529L232.465 22.4671ZM232.382 22.24C232.382 22.2263 232.384 22.2097 232.388 22.1917C232.391 22.1737 232.397 22.1577 232.403 22.1446C232.415 22.1179 232.423 22.115 232.405 22.1329L233.819 23.5471C234.155 23.2115 234.382 22.7671 234.382 22.24H232.382ZM232.405 22.1329L231.115 23.4229L232.529 24.8371L233.819 23.5471L232.405 22.1329ZM231.115 23.4229C231.122 23.4164 231.148 23.3925 231.196 23.3713C231.247 23.3493 231.299 23.34 231.342 23.34V25.34C231.815 25.34 232.222 25.1441 232.529 24.8371L231.115 23.4229ZM231.342 23.34C231.427 23.34 231.499 23.3628 231.548 23.3887C231.591 23.4117 231.6 23.428 231.58 23.4056L230.085 24.7344C230.367 25.052 230.789 25.34 231.342 25.34V23.34ZM231.539 23.3629C230.561 22.3849 229.332 21.9 227.922 21.9V23.9C228.832 23.9 229.543 24.1951 230.125 24.7771L231.539 23.3629ZM227.922 21.9C226.674 21.9 225.581 22.3575 224.695 23.2429L226.109 24.6571C226.624 24.1425 227.21 23.9 227.922 23.9V21.9ZM224.695 23.2429C223.824 24.1144 223.382 25.2005 223.382 26.44H225.382C225.382 25.7195 225.621 25.1456 226.109 24.6571L224.695 23.2429ZM223.382 26.44V30.37H225.382V26.44H223.382ZM223.382 30.37C223.382 31.609 223.823 32.6993 224.685 33.5868L226.12 32.1932C225.622 31.6807 225.382 31.091 225.382 30.37H223.382ZM224.705 33.6073C225.593 34.4694 226.683 34.91 227.922 34.91V32.91C227.201 32.91 226.612 32.6706 226.099 32.1727L224.705 33.6073ZM227.922 34.91C229.332 34.91 230.561 34.4251 231.539 33.4471L230.125 32.0329C229.543 32.6149 228.832 32.91 227.922 32.91V34.91ZM231.58 33.4044C231.6 33.382 231.591 33.3983 231.548 33.4213C231.499 33.4472 231.427 33.47 231.342 33.47V31.47C230.789 31.47 230.367 31.758 230.085 32.0756L231.58 33.4044ZM231.342 33.47C231.299 33.47 231.247 33.4607 231.196 33.4387C231.148 33.4175 231.122 33.3936 231.115 33.3871L232.529 31.9729C232.222 31.6659 231.815 31.47 231.342 31.47V33.47ZM231.115 33.3871L232.405 34.6771L233.819 33.2629L232.529 31.9729L231.115 33.3871ZM232.405 34.6771C232.423 34.695 232.415 34.6921 232.403 34.6654C232.397 34.6523 232.391 34.6363 232.388 34.6183C232.384 34.6003 232.382 34.5837 232.382 34.57H234.382C234.382 34.0429 234.155 33.5985 233.819 33.2629L232.405 34.6771ZM232.382 34.57C232.382 34.5264 232.392 34.4745 232.414 34.4242C232.435 34.3757 232.459 34.3494 232.465 34.3429L233.879 35.7571C234.186 35.4502 234.382 35.043 234.382 34.57H232.382ZM232.426 34.3844C231.86 35.0189 231.184 35.5167 230.387 35.8803L231.218 37.6997C232.261 37.2233 233.164 36.5611 233.919 35.7156L232.426 34.3844ZM230.404 35.8729C229.609 36.2184 228.785 36.39 227.922 36.39V38.39C229.06 38.39 230.156 38.1616 231.201 37.7071L230.404 35.8729ZM237.079 36.82L237.786 36.1129L237.786 36.1129L237.079 36.82ZM237.079 14.2L236.372 13.4929L236.372 13.4929L237.079 14.2ZM240.319 14.2L241.026 13.4929L241.026 13.4929L240.319 14.2ZM240.499 25.93H239.499V26.93H240.499V25.93ZM241.519 25.93V26.93H241.954L242.251 26.6119L241.519 25.93ZM246.889 20.17L247.621 20.8519L247.626 20.8457L246.889 20.17ZM250.879 19.99L250.172 20.6971L250.204 20.7292L250.239 20.7582L250.879 19.99ZM250.879 20.83L251.601 21.5225L251.643 21.4786L251.679 21.43L250.879 20.83ZM244.429 27.55L243.708 26.8575L243.1 27.4912L243.649 28.176L244.429 27.55ZM251.269 36.07L252.083 35.4888L252.067 35.4659L252.049 35.444L251.269 36.07ZM247.249 36.55L246.466 37.1715L246.468 37.1747L247.249 36.55ZM241.489 29.29L242.273 28.6685L241.972 28.29H241.489V29.29ZM240.499 29.29V28.29H239.499V29.29H240.499ZM240.319 36.82L239.612 36.1129L239.612 36.1129L240.319 36.82ZM237.529 36C237.552 36 237.597 36.0042 237.653 36.0265C237.71 36.0493 237.756 36.0821 237.786 36.1129L236.372 37.5271C236.692 37.8469 237.102 38 237.529 38V36ZM237.786 36.1129C237.817 36.1437 237.85 36.1891 237.873 36.2461C237.895 36.302 237.899 36.3473 237.899 36.37H235.899C235.899 36.7974 236.052 37.2073 236.372 37.5271L237.786 36.1129ZM237.899 36.37V14.65H235.899V36.37H237.899ZM237.899 14.65C237.899 14.6727 237.895 14.718 237.873 14.7739C237.85 14.8309 237.817 14.8763 237.786 14.9071L236.372 13.4929C236.052 13.8127 235.899 14.2226 235.899 14.65H237.899ZM237.786 14.9071C237.756 14.9379 237.71 14.9707 237.653 14.9935C237.597 15.0158 237.552 15.02 237.529 15.02V13.02C237.102 13.02 236.692 13.1731 236.372 13.4929L237.786 14.9071ZM237.529 15.02H239.869V13.02H237.529V15.02ZM239.869 15.02C239.847 15.02 239.801 15.0158 239.745 14.9935C239.688 14.9707 239.643 14.9379 239.612 14.9071L241.026 13.4929C240.707 13.1731 240.297 13.02 239.869 13.02V15.02ZM239.612 14.9071C239.581 14.8763 239.549 14.8309 239.526 14.7739C239.503 14.718 239.499 14.6727 239.499 14.65H241.499C241.499 14.2226 241.346 13.8127 241.026 13.4929L239.612 14.9071ZM239.499 14.65V25.93H241.499V14.65H239.499ZM240.499 26.93H241.519V24.93H240.499V26.93ZM242.251 26.6119L247.621 20.8519L246.158 19.4881L240.788 25.2481L242.251 26.6119ZM247.626 20.8457C247.64 20.8304 247.65 20.8222 247.656 20.8184C247.658 20.8164 247.66 20.8153 247.661 20.8147C247.662 20.8141 247.663 20.8139 247.663 20.8138C247.663 20.8137 247.663 20.8136 247.664 20.8134C247.664 20.8133 247.666 20.8129 247.668 20.8124C247.672 20.8116 247.682 20.81 247.699 20.81V18.81C247.093 18.81 246.558 19.0517 246.152 19.4943L247.626 20.8457ZM247.699 20.81H250.429V18.81H247.699V20.81ZM250.429 20.81C250.407 20.81 250.361 20.8058 250.305 20.7835C250.248 20.7607 250.203 20.7279 250.172 20.6971L251.586 19.2829C251.267 18.9631 250.857 18.81 250.429 18.81V20.81ZM250.239 20.7582C250.196 20.7219 250.144 20.6633 250.106 20.5816C250.069 20.5005 250.059 20.4276 250.059 20.38H252.059C252.059 19.9315 251.874 19.517 251.519 19.2218L250.239 20.7582ZM250.059 20.38C250.059 20.3048 250.076 20.2513 250.086 20.2261C250.095 20.203 250.099 20.2043 250.079 20.23L251.679 21.43C251.875 21.1687 252.059 20.8116 252.059 20.38H250.059ZM250.158 20.1375L243.708 26.8575L245.151 28.2425L251.601 21.5225L250.158 20.1375ZM243.649 28.176L250.489 36.696L252.049 35.444L245.209 26.924L243.649 28.176ZM250.456 36.6512C250.467 36.6679 250.46 36.6612 250.448 36.6315C250.436 36.6001 250.419 36.5408 250.419 36.46H252.419C252.419 36.0589 252.254 35.7276 252.083 35.4888L250.456 36.6512ZM250.419 36.46C250.419 36.4353 250.423 36.3838 250.448 36.3185C250.474 36.2509 250.515 36.1903 250.562 36.1429L251.976 37.5571C252.289 37.2443 252.419 36.8472 252.419 36.46H250.419ZM250.562 36.1429C250.622 36.0828 250.691 36.0429 250.753 36.0208C250.811 36 250.848 36 250.849 36V38C251.219 38 251.641 37.8923 251.976 37.5571L250.562 36.1429ZM250.849 36H248.179V38H250.849V36ZM248.179 36C248.124 36 248.103 35.9901 248.097 35.9873C248.091 35.9844 248.068 35.9725 248.03 35.9253L246.468 37.1747C246.896 37.7089 247.492 38 248.179 38V36ZM248.033 35.9285L242.273 28.6685L240.706 29.9115L246.466 37.1715L248.033 35.9285ZM241.489 28.29H240.499V30.29H241.489V28.29ZM239.499 29.29V36.37H241.499V29.29H239.499ZM239.499 36.37C239.499 36.3473 239.503 36.302 239.526 36.2461C239.549 36.1891 239.581 36.1437 239.612 36.1129L241.026 37.5271C241.346 37.2073 241.499 36.7974 241.499 36.37H239.499ZM239.612 36.1129C239.643 36.0821 239.688 36.0493 239.745 36.0265C239.801 36.0042 239.847 36 239.869 36V38C240.297 38 240.707 37.8469 241.026 37.5271L239.612 36.1129ZM239.869 36H237.529V38H239.869V36Z" fill="#D4D5D5"/>
</svg>
